<?xml version="1.0" encoding="UTF-8" standalone="no"?>
<!DOCTYPE svg PUBLIC "-//W3C//DTD SVG 1.1//EN"
 "http://www.w3.org/Graphics/SVG/1.1/DTD/svg11.dtd">
<!-- Generated by graphviz version 2.43.0 (0)
 -->
<!-- Title: G Pages: 1 -->
<svg width="452pt" height="393pt"
 viewBox="0.00 0.00 452.00 393.00" xmlns="http://www.w3.org/2000/svg" xmlns:xlink="http://www.w3.org/1999/xlink">
<g id="graph0" class="graph" transform="scale(1 1) rotate(0) translate(4 389)">
<title>G</title>
<polygon fill="white" stroke="transparent" points="-4,4 -4,-389 448,-389 448,4 -4,4"/>
<g id="clust1" class="cluster">
<title>cluster_0</title>
<polygon fill="none" stroke="transparent" points="8,-50 8,-335 61,-335 61,-50 8,-50"/>
<text text-anchor="middle" x="34.5" y="-319.8" font-family="Hilda 10" font-size="14.00">Input</text>
</g>
<g id="clust2" class="cluster">
<title>cluster_1</title>
<polygon fill="none" stroke="transparent" points="117,-8 117,-377 176,-377 176,-8 117,-8"/>
<text text-anchor="middle" x="146.5" y="-361.8" font-family="Hilda 10" font-size="14.00">Linear</text>
</g>
<g id="clust3" class="cluster">
<title>cluster_2</title>
<polygon fill="none" stroke="transparent" points="232,-8 232,-377 291,-377 291,-8 232,-8"/>
<text text-anchor="middle" x="261.5" y="-361.8" font-family="Hilda 10" font-size="14.00">Linear</text>
</g>
<g id="clust4" class="cluster">
<title>cluster_3</title>
<polygon fill="none" stroke="transparent" points="347,-113 347,-272 444,-272 444,-113 347,-113"/>
<text text-anchor="middle" x="395.5" y="-256.8" font-family="Hilda 10" font-size="14.00">LogSoftMax</text>
</g>
<!-- l10 -->
<g id="node1" class="node">
<title>l10</title>
<ellipse fill="black" stroke="white" stroke-width="15" cx="34" cy="-118" rx="18" ry="18"/>
</g>
<!-- l20 -->
<g id="node7" class="node">
<title>l20</title>
<ellipse fill="gray" stroke="white" stroke-width="15" cx="146" cy="-328" rx="18" ry="18"/>
</g>
<!-- l10&#45;&gt;l20 -->
<g id="edge1" class="edge">
<title>l10&#45;&gt;l20</title>
<path fill="none" stroke="black" d="M43.27,-133.78C62.94,-171.35 112.54,-266.03 134.39,-307.74"/>
<polygon fill="black" stroke="black" points="132.92,-308.7 136.79,-312.32 136.02,-307.08 132.92,-308.7"/>
</g>
<!-- l21 -->
<g id="node8" class="node">
<title>l21</title>
<ellipse fill="gray" stroke="white" stroke-width="15" cx="146" cy="-286" rx="18" ry="18"/>
</g>
<!-- l10&#45;&gt;l21 -->
<g id="edge2" class="edge">
<title>l10&#45;&gt;l21</title>
<path fill="none" stroke="black" d="M44.57,-132.62C64.48,-163.02 110.35,-233.08 132.53,-266.96"/>
<polygon fill="black" stroke="black" points="131.17,-268.07 135.37,-271.3 134.1,-266.16 131.17,-268.07"/>
</g>
<!-- l22 -->
<g id="node9" class="node">
<title>l22</title>
<ellipse fill="gray" stroke="white" stroke-width="15" cx="146" cy="-244" rx="18" ry="18"/>
</g>
<!-- l10&#45;&gt;l22 -->
<g id="edge3" class="edge">
<title>l10&#45;&gt;l22</title>
<path fill="none" stroke="black" d="M46.77,-131.48C66.87,-154.5 107.77,-201.35 129.92,-226.73"/>
<polygon fill="black" stroke="black" points="128.71,-228 133.31,-230.61 131.34,-225.7 128.71,-228"/>
</g>
<!-- l23 -->
<g id="node10" class="node">
<title>l23</title>
<ellipse fill="gray" stroke="white" stroke-width="15" cx="146" cy="-202" rx="18" ry="18"/>
</g>
<!-- l10&#45;&gt;l23 -->
<g id="edge4" class="edge">
<title>l10&#45;&gt;l23</title>
<path fill="none" stroke="black" d="M48.93,-128.64C68.77,-143.79 105.16,-171.58 127.01,-188.27"/>
<polygon fill="black" stroke="black" points="126.15,-189.8 131.18,-191.45 128.27,-187.02 126.15,-189.8"/>
</g>
<!-- l24 -->
<g id="node11" class="node">
<title>l24</title>
<ellipse fill="gray" stroke="white" stroke-width="15" cx="146" cy="-160" rx="18" ry="18"/>
</g>
<!-- l10&#45;&gt;l24 -->
<g id="edge5" class="edge">
<title>l10&#45;&gt;l24</title>
<path fill="none" stroke="black" d="M51.23,-124.2C70.48,-131.55 102.64,-143.82 123.83,-151.92"/>
<polygon fill="black" stroke="black" points="123.41,-153.63 128.7,-153.78 124.66,-150.36 123.41,-153.63"/>
</g>
<!-- l25 -->
<g id="node12" class="node">
<title>l25</title>
<ellipse fill="gray" stroke="white" stroke-width="15" cx="146" cy="-118" rx="18" ry="18"/>
</g>
<!-- l10&#45;&gt;l25 -->
<g id="edge6" class="edge">
<title>l10&#45;&gt;l25</title>
<path fill="none" stroke="black" d="M52.19,-118C71.24,-118 102.02,-118 122.86,-118"/>
<polygon fill="black" stroke="black" points="122.93,-119.75 127.93,-118 122.93,-116.25 122.93,-119.75"/>
</g>
<!-- l26 -->
<g id="node13" class="node">
<title>l26</title>
<ellipse fill="gray" stroke="white" stroke-width="15" cx="146" cy="-76" rx="18" ry="18"/>
</g>
<!-- l10&#45;&gt;l26 -->
<g id="edge7" class="edge">
<title>l10&#45;&gt;l26</title>
<path fill="none" stroke="black" d="M51.23,-111.8C70.48,-104.45 102.64,-92.18 123.83,-84.08"/>
<polygon fill="black" stroke="black" points="124.66,-85.64 128.7,-82.22 123.41,-82.37 124.66,-85.64"/>
</g>
<!-- l27 -->
<g id="node14" class="node">
<title>l27</title>
<ellipse fill="gray" stroke="white" stroke-width="15" cx="146" cy="-34" rx="18" ry="18"/>
</g>
<!-- l10&#45;&gt;l27 -->
<g id="edge8" class="edge">
<title>l10&#45;&gt;l27</title>
<path fill="none" stroke="black" d="M48.93,-107.36C68.77,-92.21 105.16,-64.42 127.01,-47.73"/>
<polygon fill="black" stroke="black" points="128.27,-48.98 131.18,-44.55 126.15,-46.2 128.27,-48.98"/>
</g>
<!-- l11 -->
<g id="node2" class="node">
<title>l11</title>
<ellipse fill="black" stroke="white" stroke-width="15" cx="34" cy="-76" rx="18" ry="18"/>
</g>
<!-- l11&#45;&gt;l20 -->
<g id="edge9" class="edge">
<title>l11&#45;&gt;l20</title>
<path fill="none" stroke="black" d="M42.05,-92.15C61.21,-136.05 114.26,-257.58 135.77,-306.85"/>
<polygon fill="black" stroke="black" points="134.26,-307.78 137.87,-311.66 137.47,-306.38 134.26,-307.78"/>
</g>
<!-- l11&#45;&gt;l21 -->
<g id="edge10" class="edge">
<title>l11&#45;&gt;l21</title>
<path fill="none" stroke="black" d="M43.27,-91.78C62.94,-129.35 112.54,-224.03 134.39,-265.74"/>
<polygon fill="black" stroke="black" points="132.92,-266.7 136.79,-270.32 136.02,-265.08 132.92,-266.7"/>
</g>
<!-- l11&#45;&gt;l22 -->
<g id="edge11" class="edge">
<title>l11&#45;&gt;l22</title>
<path fill="none" stroke="black" d="M44.57,-90.62C64.48,-121.02 110.35,-191.08 132.53,-224.96"/>
<polygon fill="black" stroke="black" points="131.17,-226.07 135.37,-229.3 134.1,-224.16 131.17,-226.07"/>
</g>
<!-- l11&#45;&gt;l23 -->
<g id="edge12" class="edge">
<title>l11&#45;&gt;l23</title>
<path fill="none" stroke="black" d="M46.77,-89.48C66.87,-112.5 107.77,-159.35 129.92,-184.73"/>
<polygon fill="black" stroke="black" points="128.71,-186 133.31,-188.61 131.34,-183.7 128.71,-186"/>
</g>
<!-- l11&#45;&gt;l24 -->
<g id="edge13" class="edge">
<title>l11&#45;&gt;l24</title>
<path fill="none" stroke="black" d="M48.93,-86.64C68.77,-101.79 105.16,-129.58 127.01,-146.27"/>
<polygon fill="black" stroke="black" points="126.15,-147.8 131.18,-149.45 128.27,-145.02 126.15,-147.8"/>
</g>
<!-- l11&#45;&gt;l25 -->
<g id="edge14" class="edge">
<title>l11&#45;&gt;l25</title>
<path fill="none" stroke="black" d="M51.23,-82.2C70.48,-89.55 102.64,-101.82 123.83,-109.92"/>
<polygon fill="black" stroke="black" points="123.41,-111.63 128.7,-111.78 124.66,-108.36 123.41,-111.63"/>
</g>
<!-- l11&#45;&gt;l26 -->
<g id="edge15" class="edge">
<title>l11&#45;&gt;l26</title>
<path fill="none" stroke="black" d="M52.19,-76C71.24,-76 102.02,-76 122.86,-76"/>
<polygon fill="black" stroke="black" points="122.93,-77.75 127.93,-76 122.93,-74.25 122.93,-77.75"/>
</g>
<!-- l11&#45;&gt;l27 -->
<g id="edge16" class="edge">
<title>l11&#45;&gt;l27</title>
<path fill="none" stroke="black" d="M51.23,-69.8C70.48,-62.45 102.64,-50.18 123.83,-42.08"/>
<polygon fill="black" stroke="black" points="124.66,-43.64 128.7,-40.22 123.41,-40.37 124.66,-43.64"/>
</g>
<!-- l12 -->
<g id="node3" class="node">
<title>l12</title>
<ellipse fill="black" stroke="white" stroke-width="15" cx="34" cy="-286" rx="18" ry="18"/>
</g>
<!-- l12&#45;&gt;l20 -->
<g id="edge17" class="edge">
<title>l12&#45;&gt;l20</title>
<path fill="none" stroke="black" d="M51.23,-292.2C70.48,-299.55 102.64,-311.82 123.83,-319.92"/>
<polygon fill="black" stroke="black" points="123.41,-321.63 128.7,-321.78 124.66,-318.36 123.41,-321.63"/>
</g>
<!-- l12&#45;&gt;l21 -->
<g id="edge18" class="edge">
<title>l12&#45;&gt;l21</title>
<path fill="none" stroke="black" d="M52.19,-286C71.24,-286 102.02,-286 122.86,-286"/>
<polygon fill="black" stroke="black" points="122.93,-287.75 127.93,-286 122.93,-284.25 122.93,-287.75"/>
</g>
<!-- l12&#45;&gt;l22 -->
<g id="edge19" class="edge">
<title>l12&#45;&gt;l22</title>
<path fill="none" stroke="black" d="M51.23,-279.8C70.48,-272.45 102.64,-260.18 123.83,-252.08"/>
<polygon fill="black" stroke="black" points="124.66,-253.64 128.7,-250.22 123.41,-250.37 124.66,-253.64"/>
</g>
<!-- l12&#45;&gt;l23 -->
<g id="edge20" class="edge">
<title>l12&#45;&gt;l23</title>
<path fill="none" stroke="black" d="M48.93,-275.36C68.77,-260.21 105.16,-232.42 127.01,-215.73"/>
<polygon fill="black" stroke="black" points="128.27,-216.98 131.18,-212.55 126.15,-214.2 128.27,-216.98"/>
</g>
<!-- l12&#45;&gt;l24 -->
<g id="edge21" class="edge">
<title>l12&#45;&gt;l24</title>
<path fill="none" stroke="black" d="M46.77,-272.52C66.87,-249.5 107.77,-202.65 129.92,-177.27"/>
<polygon fill="black" stroke="black" points="131.34,-178.3 133.31,-173.39 128.71,-176 131.34,-178.3"/>
</g>
<!-- l12&#45;&gt;l25 -->
<g id="edge22" class="edge">
<title>l12&#45;&gt;l25</title>
<path fill="none" stroke="black" d="M44.57,-271.38C64.48,-240.98 110.35,-170.92 132.53,-137.04"/>
<polygon fill="black" stroke="black" points="134.1,-137.84 135.37,-132.7 131.17,-135.93 134.1,-137.84"/>
</g>
<!-- l12&#45;&gt;l26 -->
<g id="edge23" class="edge">
<title>l12&#45;&gt;l26</title>
<path fill="none" stroke="black" d="M43.27,-270.22C62.94,-232.65 112.54,-137.97 134.39,-96.26"/>
<polygon fill="black" stroke="black" points="136.02,-96.92 136.79,-91.68 132.92,-95.3 136.02,-96.92"/>
</g>
<!-- l12&#45;&gt;l27 -->
<g id="edge24" class="edge">
<title>l12&#45;&gt;l27</title>
<path fill="none" stroke="black" d="M42.05,-269.85C61.21,-225.95 114.26,-104.42 135.77,-55.15"/>
<polygon fill="black" stroke="black" points="137.47,-55.62 137.87,-50.34 134.26,-54.22 137.47,-55.62"/>
</g>
<!-- l13 -->
<g id="node4" class="node">
<title>l13</title>
<ellipse fill="black" stroke="white" stroke-width="15" cx="34" cy="-244" rx="18" ry="18"/>
</g>
<!-- l13&#45;&gt;l20 -->
<g id="edge25" class="edge">
<title>l13&#45;&gt;l20</title>
<path fill="none" stroke="black" d="M48.93,-254.64C68.77,-269.79 105.16,-297.58 127.01,-314.27"/>
<polygon fill="black" stroke="black" points="126.15,-315.8 131.18,-317.45 128.27,-313.02 126.15,-315.8"/>
</g>
<!-- l13&#45;&gt;l21 -->
<g id="edge26" class="edge">
<title>l13&#45;&gt;l21</title>
<path fill="none" stroke="black" d="M51.23,-250.2C70.48,-257.55 102.64,-269.82 123.83,-277.92"/>
<polygon fill="black" stroke="black" points="123.41,-279.63 128.7,-279.78 124.66,-276.36 123.41,-279.63"/>
</g>
<!-- l13&#45;&gt;l22 -->
<g id="edge27" class="edge">
<title>l13&#45;&gt;l22</title>
<path fill="none" stroke="black" d="M52.19,-244C71.24,-244 102.02,-244 122.86,-244"/>
<polygon fill="black" stroke="black" points="122.93,-245.75 127.93,-244 122.93,-242.25 122.93,-245.75"/>
</g>
<!-- l13&#45;&gt;l23 -->
<g id="edge28" class="edge">
<title>l13&#45;&gt;l23</title>
<path fill="none" stroke="black" d="M51.23,-237.8C70.48,-230.45 102.64,-218.18 123.83,-210.08"/>
<polygon fill="black" stroke="black" points="124.66,-211.64 128.7,-208.22 123.41,-208.37 124.66,-211.64"/>
</g>
<!-- l13&#45;&gt;l24 -->
<g id="edge29" class="edge">
<title>l13&#45;&gt;l24</title>
<path fill="none" stroke="black" d="M48.93,-233.36C68.77,-218.21 105.16,-190.42 127.01,-173.73"/>
<polygon fill="black" stroke="black" points="128.27,-174.98 131.18,-170.55 126.15,-172.2 128.27,-174.98"/>
</g>
<!-- l13&#45;&gt;l25 -->
<g id="edge30" class="edge">
<title>l13&#45;&gt;l25</title>
<path fill="none" stroke="black" d="M46.77,-230.52C66.87,-207.5 107.77,-160.65 129.92,-135.27"/>
<polygon fill="black" stroke="black" points="131.34,-136.3 133.31,-131.39 128.71,-134 131.34,-136.3"/>
</g>
<!-- l13&#45;&gt;l26 -->
<g id="edge31" class="edge">
<title>l13&#45;&gt;l26</title>
<path fill="none" stroke="black" d="M44.57,-229.38C64.48,-198.98 110.35,-128.92 132.53,-95.04"/>
<polygon fill="black" stroke="black" points="134.1,-95.84 135.37,-90.7 131.17,-93.93 134.1,-95.84"/>
</g>
<!-- l13&#45;&gt;l27 -->
<g id="edge32" class="edge">
<title>l13&#45;&gt;l27</title>
<path fill="none" stroke="black" d="M43.27,-228.22C62.94,-190.65 112.54,-95.97 134.39,-54.26"/>
<polygon fill="black" stroke="black" points="136.02,-54.92 136.79,-49.68 132.92,-53.3 136.02,-54.92"/>
</g>
<!-- l14 -->
<g id="node5" class="node">
<title>l14</title>
<ellipse fill="black" stroke="white" stroke-width="15" cx="34" cy="-202" rx="18" ry="18"/>
</g>
<!-- l14&#45;&gt;l20 -->
<g id="edge33" class="edge">
<title>l14&#45;&gt;l20</title>
<path fill="none" stroke="black" d="M46.77,-215.48C66.87,-238.5 107.77,-285.35 129.92,-310.73"/>
<polygon fill="black" stroke="black" points="128.71,-312 133.31,-314.61 131.34,-309.7 128.71,-312"/>
</g>
<!-- l14&#45;&gt;l21 -->
<g id="edge34" class="edge">
<title>l14&#45;&gt;l21</title>
<path fill="none" stroke="black" d="M48.93,-212.64C68.77,-227.79 105.16,-255.58 127.01,-272.27"/>
<polygon fill="black" stroke="black" points="126.15,-273.8 131.18,-275.45 128.27,-271.02 126.15,-273.8"/>
</g>
<!-- l14&#45;&gt;l22 -->
<g id="edge35" class="edge">
<title>l14&#45;&gt;l22</title>
<path fill="none" stroke="black" d="M51.23,-208.2C70.48,-215.55 102.64,-227.82 123.83,-235.92"/>
<polygon fill="black" stroke="black" points="123.41,-237.63 128.7,-237.78 124.66,-234.36 123.41,-237.63"/>
</g>
<!-- l14&#45;&gt;l23 -->
<g id="edge36" class="edge">
<title>l14&#45;&gt;l23</title>
<path fill="none" stroke="black" d="M52.19,-202C71.24,-202 102.02,-202 122.86,-202"/>
<polygon fill="black" stroke="black" points="122.93,-203.75 127.93,-202 122.93,-200.25 122.93,-203.75"/>
</g>
<!-- l14&#45;&gt;l24 -->
<g id="edge37" class="edge">
<title>l14&#45;&gt;l24</title>
<path fill="none" stroke="black" d="M51.23,-195.8C70.48,-188.45 102.64,-176.18 123.83,-168.08"/>
<polygon fill="black" stroke="black" points="124.66,-169.64 128.7,-166.22 123.41,-166.37 124.66,-169.64"/>
</g>
<!-- l14&#45;&gt;l25 -->
<g id="edge38" class="edge">
<title>l14&#45;&gt;l25</title>
<path fill="none" stroke="black" d="M48.93,-191.36C68.77,-176.21 105.16,-148.42 127.01,-131.73"/>
<polygon fill="black" stroke="black" points="128.27,-132.98 131.18,-128.55 126.15,-130.2 128.27,-132.98"/>
</g>
<!-- l14&#45;&gt;l26 -->
<g id="edge39" class="edge">
<title>l14&#45;&gt;l26</title>
<path fill="none" stroke="black" d="M46.77,-188.52C66.87,-165.5 107.77,-118.65 129.92,-93.27"/>
<polygon fill="black" stroke="black" points="131.34,-94.3 133.31,-89.39 128.71,-92 131.34,-94.3"/>
</g>
<!-- l14&#45;&gt;l27 -->
<g id="edge40" class="edge">
<title>l14&#45;&gt;l27</title>
<path fill="none" stroke="black" d="M44.57,-187.38C64.48,-156.98 110.35,-86.92 132.53,-53.04"/>
<polygon fill="black" stroke="black" points="134.1,-53.84 135.37,-48.7 131.17,-51.93 134.1,-53.84"/>
</g>
<!-- l15 -->
<g id="node6" class="node">
<title>l15</title>
<ellipse fill="black" stroke="white" stroke-width="15" cx="34" cy="-160" rx="18" ry="18"/>
</g>
<!-- l15&#45;&gt;l20 -->
<g id="edge41" class="edge">
<title>l15&#45;&gt;l20</title>
<path fill="none" stroke="black" d="M44.57,-174.62C64.48,-205.02 110.35,-275.08 132.53,-308.96"/>
<polygon fill="black" stroke="black" points="131.17,-310.07 135.37,-313.3 134.1,-308.16 131.17,-310.07"/>
</g>
<!-- l15&#45;&gt;l21 -->
<g id="edge42" class="edge">
<title>l15&#45;&gt;l21</title>
<path fill="none" stroke="black" d="M46.77,-173.48C66.87,-196.5 107.77,-243.35 129.92,-268.73"/>
<polygon fill="black" stroke="black" points="128.71,-270 133.31,-272.61 131.34,-267.7 128.71,-270"/>
</g>
<!-- l15&#45;&gt;l22 -->
<g id="edge43" class="edge">
<title>l15&#45;&gt;l22</title>
<path fill="none" stroke="black" d="M48.93,-170.64C68.77,-185.79 105.16,-213.58 127.01,-230.27"/>
<polygon fill="black" stroke="black" points="126.15,-231.8 131.18,-233.45 128.27,-229.02 126.15,-231.8"/>
</g>
<!-- l15&#45;&gt;l23 -->
<g id="edge44" class="edge">
<title>l15&#45;&gt;l23</title>
<path fill="none" stroke="black" d="M51.23,-166.2C70.48,-173.55 102.64,-185.82 123.83,-193.92"/>
<polygon fill="black" stroke="black" points="123.41,-195.63 128.7,-195.78 124.66,-192.36 123.41,-195.63"/>
</g>
<!-- l15&#45;&gt;l24 -->
<g id="edge45" class="edge">
<title>l15&#45;&gt;l24</title>
<path fill="none" stroke="black" d="M52.19,-160C71.24,-160 102.02,-160 122.86,-160"/>
<polygon fill="black" stroke="black" points="122.93,-161.75 127.93,-160 122.93,-158.25 122.93,-161.75"/>
</g>
<!-- l15&#45;&gt;l25 -->
<g id="edge46" class="edge">
<title>l15&#45;&gt;l25</title>
<path fill="none" stroke="black" d="M51.23,-153.8C70.48,-146.45 102.64,-134.18 123.83,-126.08"/>
<polygon fill="black" stroke="black" points="124.66,-127.64 128.7,-124.22 123.41,-124.37 124.66,-127.64"/>
</g>
<!-- l15&#45;&gt;l26 -->
<g id="edge47" class="edge">
<title>l15&#45;&gt;l26</title>
<path fill="none" stroke="black" d="M48.93,-149.36C68.77,-134.21 105.16,-106.42 127.01,-89.73"/>
<polygon fill="black" stroke="black" points="128.27,-90.98 131.18,-86.55 126.15,-88.2 128.27,-90.98"/>
</g>
<!-- l15&#45;&gt;l27 -->
<g id="edge48" class="edge">
<title>l15&#45;&gt;l27</title>
<path fill="none" stroke="black" d="M46.77,-146.52C66.87,-123.5 107.77,-76.65 129.92,-51.27"/>
<polygon fill="black" stroke="black" points="131.34,-52.3 133.31,-47.39 128.71,-50 131.34,-52.3"/>
</g>
<!-- l30 -->
<g id="node15" class="node">
<title>l30</title>
<ellipse fill="gray" stroke="white" stroke-width="15" cx="261" cy="-328" rx="18" ry="18"/>
</g>
<!-- l20&#45;&gt;l30 -->
<g id="edge49" class="edge">
<title>l20&#45;&gt;l30</title>
<path fill="none" stroke="black" d="M164.16,-328C183.74,-328 215.83,-328 237.43,-328"/>
<polygon fill="black" stroke="black" points="237.68,-329.75 242.68,-328 237.68,-326.25 237.68,-329.75"/>
</g>
<!-- l31 -->
<g id="node16" class="node">
<title>l31</title>
<ellipse fill="gray" stroke="white" stroke-width="15" cx="261" cy="-286" rx="18" ry="18"/>
</g>
<!-- l20&#45;&gt;l31 -->
<g id="edge50" class="edge">
<title>l20&#45;&gt;l31</title>
<path fill="none" stroke="black" d="M163.19,-321.98C183.16,-314.56 217.15,-301.93 239.08,-293.77"/>
<polygon fill="black" stroke="black" points="239.76,-295.39 243.84,-292.01 238.54,-292.11 239.76,-295.39"/>
</g>
<!-- l32 -->
<g id="node17" class="node">
<title>l32</title>
<ellipse fill="gray" stroke="white" stroke-width="15" cx="261" cy="-244" rx="18" ry="18"/>
</g>
<!-- l20&#45;&gt;l32 -->
<g id="edge51" class="edge">
<title>l20&#45;&gt;l32</title>
<path fill="none" stroke="black" d="M160.86,-317.7C181.27,-302.52 219.45,-274.14 242.01,-257.37"/>
<polygon fill="black" stroke="black" points="243.06,-258.77 246.03,-254.38 240.97,-255.96 243.06,-258.77"/>
</g>
<!-- l33 -->
<g id="node18" class="node">
<title>l33</title>
<ellipse fill="gray" stroke="white" stroke-width="15" cx="261" cy="-202" rx="18" ry="18"/>
</g>
<!-- l20&#45;&gt;l33 -->
<g id="edge52" class="edge">
<title>l20&#45;&gt;l33</title>
<path fill="none" stroke="black" d="M158.67,-314.99C179.22,-292.07 221.87,-244.52 244.73,-219.02"/>
<polygon fill="black" stroke="black" points="246.19,-220.02 248.23,-215.13 243.59,-217.68 246.19,-220.02"/>
</g>
<!-- l34 -->
<g id="node19" class="node">
<title>l34</title>
<ellipse fill="gray" stroke="white" stroke-width="15" cx="261" cy="-160" rx="18" ry="18"/>
</g>
<!-- l20&#45;&gt;l34 -->
<g id="edge53" class="edge">
<title>l20&#45;&gt;l34</title>
<path fill="none" stroke="black" d="M156.83,-313.38C177.28,-282.98 224.4,-212.92 247.19,-179.04"/>
<polygon fill="black" stroke="black" points="248.77,-179.83 250.11,-174.7 245.87,-177.87 248.77,-179.83"/>
</g>
<!-- l35 -->
<g id="node20" class="node">
<title>l35</title>
<ellipse fill="gray" stroke="white" stroke-width="15" cx="261" cy="-118" rx="18" ry="18"/>
</g>
<!-- l20&#45;&gt;l35 -->
<g id="edge54" class="edge">
<title>l20&#45;&gt;l35</title>
<path fill="none" stroke="black" d="M155.31,-312.56C175.43,-275.16 226.77,-179.76 249.22,-138.04"/>
<polygon fill="black" stroke="black" points="250.85,-138.7 251.68,-133.46 247.77,-137.04 250.85,-138.7"/>
</g>
<!-- l36 -->
<g id="node21" class="node">
<title>l36</title>
<ellipse fill="gray" stroke="white" stroke-width="15" cx="261" cy="-76" rx="18" ry="18"/>
</g>
<!-- l20&#45;&gt;l36 -->
<g id="edge55" class="edge">
<title>l20&#45;&gt;l36</title>
<path fill="none" stroke="black" d="M154.24,-311.85C173.93,-267.95 228.42,-146.42 250.51,-97.15"/>
<polygon fill="black" stroke="black" points="252.22,-97.62 252.67,-92.34 249.03,-96.19 252.22,-97.62"/>
</g>
<!-- l37 -->
<g id="node22" class="node">
<title>l37</title>
<ellipse fill="gray" stroke="white" stroke-width="15" cx="261" cy="-34" rx="18" ry="18"/>
</g>
<!-- l20&#45;&gt;l37 -->
<g id="edge56" class="edge">
<title>l20&#45;&gt;l37</title>
<path fill="none" stroke="black" d="M153.4,-311.35C172.71,-261.12 230.36,-111.11 251.83,-55.26"/>
<polygon fill="black" stroke="black" points="253.51,-55.76 253.67,-50.47 250.24,-54.51 253.51,-55.76"/>
</g>
<!-- l21&#45;&gt;l30 -->
<g id="edge57" class="edge">
<title>l21&#45;&gt;l30</title>
<path fill="none" stroke="black" d="M163.19,-292.02C183.16,-299.44 217.15,-312.07 239.08,-320.23"/>
<polygon fill="black" stroke="black" points="238.54,-321.89 243.84,-321.99 239.76,-318.61 238.54,-321.89"/>
</g>
<!-- l21&#45;&gt;l31 -->
<g id="edge58" class="edge">
<title>l21&#45;&gt;l31</title>
<path fill="none" stroke="black" d="M164.16,-286C183.74,-286 215.83,-286 237.43,-286"/>
<polygon fill="black" stroke="black" points="237.68,-287.75 242.68,-286 237.68,-284.25 237.68,-287.75"/>
</g>
<!-- l21&#45;&gt;l32 -->
<g id="edge59" class="edge">
<title>l21&#45;&gt;l32</title>
<path fill="none" stroke="black" d="M163.19,-279.98C183.16,-272.56 217.15,-259.93 239.08,-251.77"/>
<polygon fill="black" stroke="black" points="239.76,-253.39 243.84,-250.01 238.54,-250.11 239.76,-253.39"/>
</g>
<!-- l21&#45;&gt;l33 -->
<g id="edge60" class="edge">
<title>l21&#45;&gt;l33</title>
<path fill="none" stroke="black" d="M160.86,-275.7C181.27,-260.52 219.45,-232.14 242.01,-215.37"/>
<polygon fill="black" stroke="black" points="243.06,-216.77 246.03,-212.38 240.97,-213.96 243.06,-216.77"/>
</g>
<!-- l21&#45;&gt;l34 -->
<g id="edge61" class="edge">
<title>l21&#45;&gt;l34</title>
<path fill="none" stroke="black" d="M158.67,-272.99C179.22,-250.07 221.87,-202.52 244.73,-177.02"/>
<polygon fill="black" stroke="black" points="246.19,-178.02 248.23,-173.13 243.59,-175.68 246.19,-178.02"/>
</g>
<!-- l21&#45;&gt;l35 -->
<g id="edge62" class="edge">
<title>l21&#45;&gt;l35</title>
<path fill="none" stroke="black" d="M156.83,-271.38C177.28,-240.98 224.4,-170.92 247.19,-137.04"/>
<polygon fill="black" stroke="black" points="248.77,-137.83 250.11,-132.7 245.87,-135.87 248.77,-137.83"/>
</g>
<!-- l21&#45;&gt;l36 -->
<g id="edge63" class="edge">
<title>l21&#45;&gt;l36</title>
<path fill="none" stroke="black" d="M155.31,-270.56C175.43,-233.16 226.77,-137.76 249.22,-96.04"/>
<polygon fill="black" stroke="black" points="250.85,-96.7 251.68,-91.46 247.77,-95.04 250.85,-96.7"/>
</g>
<!-- l21&#45;&gt;l37 -->
<g id="edge64" class="edge">
<title>l21&#45;&gt;l37</title>
<path fill="none" stroke="black" d="M154.24,-269.85C173.93,-225.95 228.42,-104.42 250.51,-55.15"/>
<polygon fill="black" stroke="black" points="252.22,-55.62 252.67,-50.34 249.03,-54.19 252.22,-55.62"/>
</g>
<!-- l22&#45;&gt;l30 -->
<g id="edge65" class="edge">
<title>l22&#45;&gt;l30</title>
<path fill="none" stroke="black" d="M160.86,-254.3C181.27,-269.48 219.45,-297.86 242.01,-314.63"/>
<polygon fill="black" stroke="black" points="240.97,-316.04 246.03,-317.62 243.06,-313.23 240.97,-316.04"/>
</g>
<!-- l22&#45;&gt;l31 -->
<g id="edge66" class="edge">
<title>l22&#45;&gt;l31</title>
<path fill="none" stroke="black" d="M163.19,-250.02C183.16,-257.44 217.15,-270.07 239.08,-278.23"/>
<polygon fill="black" stroke="black" points="238.54,-279.89 243.84,-279.99 239.76,-276.61 238.54,-279.89"/>
</g>
<!-- l22&#45;&gt;l32 -->
<g id="edge67" class="edge">
<title>l22&#45;&gt;l32</title>
<path fill="none" stroke="black" d="M164.16,-244C183.74,-244 215.83,-244 237.43,-244"/>
<polygon fill="black" stroke="black" points="237.68,-245.75 242.68,-244 237.68,-242.25 237.68,-245.75"/>
</g>
<!-- l22&#45;&gt;l33 -->
<g id="edge68" class="edge">
<title>l22&#45;&gt;l33</title>
<path fill="none" stroke="black" d="M163.19,-237.98C183.16,-230.56 217.15,-217.93 239.08,-209.77"/>
<polygon fill="black" stroke="black" points="239.76,-211.39 243.84,-208.01 238.54,-208.11 239.76,-211.39"/>
</g>
<!-- l22&#45;&gt;l34 -->
<g id="edge69" class="edge">
<title>l22&#45;&gt;l34</title>
<path fill="none" stroke="black" d="M160.86,-233.7C181.27,-218.52 219.45,-190.14 242.01,-173.37"/>
<polygon fill="black" stroke="black" points="243.06,-174.77 246.03,-170.38 240.97,-171.96 243.06,-174.77"/>
</g>
<!-- l22&#45;&gt;l35 -->
<g id="edge70" class="edge">
<title>l22&#45;&gt;l35</title>
<path fill="none" stroke="black" d="M158.67,-230.99C179.22,-208.07 221.87,-160.52 244.73,-135.02"/>
<polygon fill="black" stroke="black" points="246.19,-136.02 248.23,-131.13 243.59,-133.68 246.19,-136.02"/>
</g>
<!-- l22&#45;&gt;l36 -->
<g id="edge71" class="edge">
<title>l22&#45;&gt;l36</title>
<path fill="none" stroke="black" d="M156.83,-229.38C177.28,-198.98 224.4,-128.92 247.19,-95.04"/>
<polygon fill="black" stroke="black" points="248.77,-95.83 250.11,-90.7 245.87,-93.87 248.77,-95.83"/>
</g>
<!-- l22&#45;&gt;l37 -->
<g id="edge72" class="edge">
<title>l22&#45;&gt;l37</title>
<path fill="none" stroke="black" d="M155.31,-228.56C175.43,-191.16 226.77,-95.76 249.22,-54.04"/>
<polygon fill="black" stroke="black" points="250.85,-54.7 251.68,-49.46 247.77,-53.04 250.85,-54.7"/>
</g>
<!-- l23&#45;&gt;l30 -->
<g id="edge73" class="edge">
<title>l23&#45;&gt;l30</title>
<path fill="none" stroke="black" d="M158.67,-215.01C179.22,-237.93 221.87,-285.48 244.73,-310.98"/>
<polygon fill="black" stroke="black" points="243.59,-312.32 248.23,-314.87 246.19,-309.98 243.59,-312.32"/>
</g>
<!-- l23&#45;&gt;l31 -->
<g id="edge74" class="edge">
<title>l23&#45;&gt;l31</title>
<path fill="none" stroke="black" d="M160.86,-212.3C181.27,-227.48 219.45,-255.86 242.01,-272.63"/>
<polygon fill="black" stroke="black" points="240.97,-274.04 246.03,-275.62 243.06,-271.23 240.97,-274.04"/>
</g>
<!-- l23&#45;&gt;l32 -->
<g id="edge75" class="edge">
<title>l23&#45;&gt;l32</title>
<path fill="none" stroke="black" d="M163.19,-208.02C183.16,-215.44 217.15,-228.07 239.08,-236.23"/>
<polygon fill="black" stroke="black" points="238.54,-237.89 243.84,-237.99 239.76,-234.61 238.54,-237.89"/>
</g>
<!-- l23&#45;&gt;l33 -->
<g id="edge76" class="edge">
<title>l23&#45;&gt;l33</title>
<path fill="none" stroke="black" d="M164.16,-202C183.74,-202 215.83,-202 237.43,-202"/>
<polygon fill="black" stroke="black" points="237.68,-203.75 242.68,-202 237.68,-200.25 237.68,-203.75"/>
</g>
<!-- l23&#45;&gt;l34 -->
<g id="edge77" class="edge">
<title>l23&#45;&gt;l34</title>
<path fill="none" stroke="black" d="M163.19,-195.98C183.16,-188.56 217.15,-175.93 239.08,-167.77"/>
<polygon fill="black" stroke="black" points="239.76,-169.39 243.84,-166.01 238.54,-166.11 239.76,-169.39"/>
</g>
<!-- l23&#45;&gt;l35 -->
<g id="edge78" class="edge">
<title>l23&#45;&gt;l35</title>
<path fill="none" stroke="black" d="M160.86,-191.7C181.27,-176.52 219.45,-148.14 242.01,-131.37"/>
<polygon fill="black" stroke="black" points="243.06,-132.77 246.03,-128.38 240.97,-129.96 243.06,-132.77"/>
</g>
<!-- l23&#45;&gt;l36 -->
<g id="edge79" class="edge">
<title>l23&#45;&gt;l36</title>
<path fill="none" stroke="black" d="M158.67,-188.99C179.22,-166.07 221.87,-118.52 244.73,-93.02"/>
<polygon fill="black" stroke="black" points="246.19,-94.02 248.23,-89.13 243.59,-91.68 246.19,-94.02"/>
</g>
<!-- l23&#45;&gt;l37 -->
<g id="edge80" class="edge">
<title>l23&#45;&gt;l37</title>
<path fill="none" stroke="black" d="M156.83,-187.38C177.28,-156.98 224.4,-86.92 247.19,-53.04"/>
<polygon fill="black" stroke="black" points="248.77,-53.83 250.11,-48.7 245.87,-51.87 248.77,-53.83"/>
</g>
<!-- l24&#45;&gt;l30 -->
<g id="edge81" class="edge">
<title>l24&#45;&gt;l30</title>
<path fill="none" stroke="black" d="M156.83,-174.62C177.28,-205.02 224.4,-275.08 247.19,-308.96"/>
<polygon fill="black" stroke="black" points="245.87,-310.13 250.11,-313.3 248.77,-308.17 245.87,-310.13"/>
</g>
<!-- l24&#45;&gt;l31 -->
<g id="edge82" class="edge">
<title>l24&#45;&gt;l31</title>
<path fill="none" stroke="black" d="M158.67,-173.01C179.22,-195.93 221.87,-243.48 244.73,-268.98"/>
<polygon fill="black" stroke="black" points="243.59,-270.32 248.23,-272.87 246.19,-267.98 243.59,-270.32"/>
</g>
<!-- l24&#45;&gt;l32 -->
<g id="edge83" class="edge">
<title>l24&#45;&gt;l32</title>
<path fill="none" stroke="black" d="M160.86,-170.3C181.27,-185.48 219.45,-213.86 242.01,-230.63"/>
<polygon fill="black" stroke="black" points="240.97,-232.04 246.03,-233.62 243.06,-229.23 240.97,-232.04"/>
</g>
<!-- l24&#45;&gt;l33 -->
<g id="edge84" class="edge">
<title>l24&#45;&gt;l33</title>
<path fill="none" stroke="black" d="M163.19,-166.02C183.16,-173.44 217.15,-186.07 239.08,-194.23"/>
<polygon fill="black" stroke="black" points="238.54,-195.89 243.84,-195.99 239.76,-192.61 238.54,-195.89"/>
</g>
<!-- l24&#45;&gt;l34 -->
<g id="edge85" class="edge">
<title>l24&#45;&gt;l34</title>
<path fill="none" stroke="black" d="M164.16,-160C183.74,-160 215.83,-160 237.43,-160"/>
<polygon fill="black" stroke="black" points="237.68,-161.75 242.68,-160 237.68,-158.25 237.68,-161.75"/>
</g>
<!-- l24&#45;&gt;l35 -->
<g id="edge86" class="edge">
<title>l24&#45;&gt;l35</title>
<path fill="none" stroke="black" d="M163.19,-153.98C183.16,-146.56 217.15,-133.93 239.08,-125.77"/>
<polygon fill="black" stroke="black" points="239.76,-127.39 243.84,-124.01 238.54,-124.11 239.76,-127.39"/>
</g>
<!-- l24&#45;&gt;l36 -->
<g id="edge87" class="edge">
<title>l24&#45;&gt;l36</title>
<path fill="none" stroke="black" d="M160.86,-149.7C181.27,-134.52 219.45,-106.14 242.01,-89.37"/>
<polygon fill="black" stroke="black" points="243.06,-90.77 246.03,-86.38 240.97,-87.96 243.06,-90.77"/>
</g>
<!-- l24&#45;&gt;l37 -->
<g id="edge88" class="edge">
<title>l24&#45;&gt;l37</title>
<path fill="none" stroke="black" d="M158.67,-146.99C179.22,-124.07 221.87,-76.52 244.73,-51.02"/>
<polygon fill="black" stroke="black" points="246.19,-52.02 248.23,-47.13 243.59,-49.68 246.19,-52.02"/>
</g>
<!-- l25&#45;&gt;l30 -->
<g id="edge89" class="edge">
<title>l25&#45;&gt;l30</title>
<path fill="none" stroke="black" d="M155.31,-133.44C175.43,-170.84 226.77,-266.24 249.22,-307.96"/>
<polygon fill="black" stroke="black" points="247.77,-308.96 251.68,-312.54 250.85,-307.3 247.77,-308.96"/>
</g>
<!-- l25&#45;&gt;l31 -->
<g id="edge90" class="edge">
<title>l25&#45;&gt;l31</title>
<path fill="none" stroke="black" d="M156.83,-132.62C177.28,-163.02 224.4,-233.08 247.19,-266.96"/>
<polygon fill="black" stroke="black" points="245.87,-268.13 250.11,-271.3 248.77,-266.17 245.87,-268.13"/>
</g>
<!-- l25&#45;&gt;l32 -->
<g id="edge91" class="edge">
<title>l25&#45;&gt;l32</title>
<path fill="none" stroke="black" d="M158.67,-131.01C179.22,-153.93 221.87,-201.48 244.73,-226.98"/>
<polygon fill="black" stroke="black" points="243.59,-228.32 248.23,-230.87 246.19,-225.98 243.59,-228.32"/>
</g>
<!-- l25&#45;&gt;l33 -->
<g id="edge92" class="edge">
<title>l25&#45;&gt;l33</title>
<path fill="none" stroke="black" d="M160.86,-128.3C181.27,-143.48 219.45,-171.86 242.01,-188.63"/>
<polygon fill="black" stroke="black" points="240.97,-190.04 246.03,-191.62 243.06,-187.23 240.97,-190.04"/>
</g>
<!-- l25&#45;&gt;l34 -->
<g id="edge93" class="edge">
<title>l25&#45;&gt;l34</title>
<path fill="none" stroke="black" d="M163.19,-124.02C183.16,-131.44 217.15,-144.07 239.08,-152.23"/>
<polygon fill="black" stroke="black" points="238.54,-153.89 243.84,-153.99 239.76,-150.61 238.54,-153.89"/>
</g>
<!-- l25&#45;&gt;l35 -->
<g id="edge94" class="edge">
<title>l25&#45;&gt;l35</title>
<path fill="none" stroke="black" d="M164.16,-118C183.74,-118 215.83,-118 237.43,-118"/>
<polygon fill="black" stroke="black" points="237.68,-119.75 242.68,-118 237.68,-116.25 237.68,-119.75"/>
</g>
<!-- l25&#45;&gt;l36 -->
<g id="edge95" class="edge">
<title>l25&#45;&gt;l36</title>
<path fill="none" stroke="black" d="M163.19,-111.98C183.16,-104.56 217.15,-91.93 239.08,-83.77"/>
<polygon fill="black" stroke="black" points="239.76,-85.39 243.84,-82.01 238.54,-82.11 239.76,-85.39"/>
</g>
<!-- l25&#45;&gt;l37 -->
<g id="edge96" class="edge">
<title>l25&#45;&gt;l37</title>
<path fill="none" stroke="black" d="M160.86,-107.7C181.27,-92.52 219.45,-64.14 242.01,-47.37"/>
<polygon fill="black" stroke="black" points="243.06,-48.77 246.03,-44.38 240.97,-45.96 243.06,-48.77"/>
</g>
<!-- l26&#45;&gt;l30 -->
<g id="edge97" class="edge">
<title>l26&#45;&gt;l30</title>
<path fill="none" stroke="black" d="M154.24,-92.15C173.93,-136.05 228.42,-257.58 250.51,-306.85"/>
<polygon fill="black" stroke="black" points="249.03,-307.81 252.67,-311.66 252.22,-306.38 249.03,-307.81"/>
</g>
<!-- l26&#45;&gt;l31 -->
<g id="edge98" class="edge">
<title>l26&#45;&gt;l31</title>
<path fill="none" stroke="black" d="M155.31,-91.44C175.43,-128.84 226.77,-224.24 249.22,-265.96"/>
<polygon fill="black" stroke="black" points="247.77,-266.96 251.68,-270.54 250.85,-265.3 247.77,-266.96"/>
</g>
<!-- l26&#45;&gt;l32 -->
<g id="edge99" class="edge">
<title>l26&#45;&gt;l32</title>
<path fill="none" stroke="black" d="M156.83,-90.62C177.28,-121.02 224.4,-191.08 247.19,-224.96"/>
<polygon fill="black" stroke="black" points="245.87,-226.13 250.11,-229.3 248.77,-224.17 245.87,-226.13"/>
</g>
<!-- l26&#45;&gt;l33 -->
<g id="edge100" class="edge">
<title>l26&#45;&gt;l33</title>
<path fill="none" stroke="black" d="M158.67,-89.01C179.22,-111.93 221.87,-159.48 244.73,-184.98"/>
<polygon fill="black" stroke="black" points="243.59,-186.32 248.23,-188.87 246.19,-183.98 243.59,-186.32"/>
</g>
<!-- l26&#45;&gt;l34 -->
<g id="edge101" class="edge">
<title>l26&#45;&gt;l34</title>
<path fill="none" stroke="black" d="M160.86,-86.3C181.27,-101.48 219.45,-129.86 242.01,-146.63"/>
<polygon fill="black" stroke="black" points="240.97,-148.04 246.03,-149.62 243.06,-145.23 240.97,-148.04"/>
</g>
<!-- l26&#45;&gt;l35 -->
<g id="edge102" class="edge">
<title>l26&#45;&gt;l35</title>
<path fill="none" stroke="black" d="M163.19,-82.02C183.16,-89.44 217.15,-102.07 239.08,-110.23"/>
<polygon fill="black" stroke="black" points="238.54,-111.89 243.84,-111.99 239.76,-108.61 238.54,-111.89"/>
</g>
<!-- l26&#45;&gt;l36 -->
<g id="edge103" class="edge">
<title>l26&#45;&gt;l36</title>
<path fill="none" stroke="black" d="M164.16,-76C183.74,-76 215.83,-76 237.43,-76"/>
<polygon fill="black" stroke="black" points="237.68,-77.75 242.68,-76 237.68,-74.25 237.68,-77.75"/>
</g>
<!-- l26&#45;&gt;l37 -->
<g id="edge104" class="edge">
<title>l26&#45;&gt;l37</title>
<path fill="none" stroke="black" d="M163.19,-69.98C183.16,-62.56 217.15,-49.93 239.08,-41.77"/>
<polygon fill="black" stroke="black" points="239.76,-43.39 243.84,-40.01 238.54,-40.11 239.76,-43.39"/>
</g>
<!-- l27&#45;&gt;l30 -->
<g id="edge105" class="edge">
<title>l27&#45;&gt;l30</title>
<path fill="none" stroke="black" d="M153.4,-50.65C172.71,-100.88 230.36,-250.89 251.83,-306.74"/>
<polygon fill="black" stroke="black" points="250.24,-307.49 253.67,-311.53 253.51,-306.24 250.24,-307.49"/>
</g>
<!-- l27&#45;&gt;l31 -->
<g id="edge106" class="edge">
<title>l27&#45;&gt;l31</title>
<path fill="none" stroke="black" d="M154.24,-50.15C173.93,-94.05 228.42,-215.58 250.51,-264.85"/>
<polygon fill="black" stroke="black" points="249.03,-265.81 252.67,-269.66 252.22,-264.38 249.03,-265.81"/>
</g>
<!-- l27&#45;&gt;l32 -->
<g id="edge107" class="edge">
<title>l27&#45;&gt;l32</title>
<path fill="none" stroke="black" d="M155.31,-49.44C175.43,-86.84 226.77,-182.24 249.22,-223.96"/>
<polygon fill="black" stroke="black" points="247.77,-224.96 251.68,-228.54 250.85,-223.3 247.77,-224.96"/>
</g>
<!-- l27&#45;&gt;l33 -->
<g id="edge108" class="edge">
<title>l27&#45;&gt;l33</title>
<path fill="none" stroke="black" d="M156.83,-48.62C177.28,-79.02 224.4,-149.08 247.19,-182.96"/>
<polygon fill="black" stroke="black" points="245.87,-184.13 250.11,-187.3 248.77,-182.17 245.87,-184.13"/>
</g>
<!-- l27&#45;&gt;l34 -->
<g id="edge109" class="edge">
<title>l27&#45;&gt;l34</title>
<path fill="none" stroke="black" d="M158.67,-47.01C179.22,-69.93 221.87,-117.48 244.73,-142.98"/>
<polygon fill="black" stroke="black" points="243.59,-144.32 248.23,-146.87 246.19,-141.98 243.59,-144.32"/>
</g>
<!-- l27&#45;&gt;l35 -->
<g id="edge110" class="edge">
<title>l27&#45;&gt;l35</title>
<path fill="none" stroke="black" d="M160.86,-44.3C181.27,-59.48 219.45,-87.86 242.01,-104.63"/>
<polygon fill="black" stroke="black" points="240.97,-106.04 246.03,-107.62 243.06,-103.23 240.97,-106.04"/>
</g>
<!-- l27&#45;&gt;l36 -->
<g id="edge111" class="edge">
<title>l27&#45;&gt;l36</title>
<path fill="none" stroke="black" d="M163.19,-40.02C183.16,-47.44 217.15,-60.07 239.08,-68.23"/>
<polygon fill="black" stroke="black" points="238.54,-69.89 243.84,-69.99 239.76,-66.61 238.54,-69.89"/>
</g>
<!-- l27&#45;&gt;l37 -->
<g id="edge112" class="edge">
<title>l27&#45;&gt;l37</title>
<path fill="none" stroke="black" d="M164.16,-34C183.74,-34 215.83,-34 237.43,-34"/>
<polygon fill="black" stroke="black" points="237.68,-35.75 242.68,-34 237.68,-32.25 237.68,-35.75"/>
</g>
<!-- l40 -->
<g id="node23" class="node">
<title>l40</title>
<ellipse fill="black" stroke="white" stroke-width="15" cx="395" cy="-139" rx="18" ry="18"/>
</g>
<!-- l30&#45;&gt;l40 -->
<g id="edge113" class="edge">
<title>l30&#45;&gt;l40</title>
<path fill="none" stroke="black" d="M272.14,-313.48C295.81,-279.59 354.68,-195.29 380.97,-157.66"/>
<polygon fill="black" stroke="black" points="382.58,-158.41 384.01,-153.31 379.71,-156.4 382.58,-158.41"/>
</g>
<!-- l41 -->
<g id="node24" class="node">
<title>l41</title>
<ellipse fill="black" stroke="white" stroke-width="15" cx="395" cy="-223" rx="18" ry="18"/>
</g>
<!-- l30&#45;&gt;l41 -->
<g id="edge114" class="edge">
<title>l30&#45;&gt;l41</title>
<path fill="none" stroke="black" d="M275.63,-317.16C299.64,-298.06 349.46,-258.43 376.17,-237.19"/>
<polygon fill="black" stroke="black" points="377.42,-238.42 380.25,-233.94 375.24,-235.68 377.42,-238.42"/>
</g>
<!-- l42 -->
<g id="node25" class="node">
<title>l42</title>
<ellipse fill="black" stroke="white" stroke-width="15" cx="395" cy="-181" rx="18" ry="18"/>
</g>
<!-- l30&#45;&gt;l42 -->
<g id="edge115" class="edge">
<title>l30&#45;&gt;l42</title>
<path fill="none" stroke="black" d="M273.71,-314.95C297.63,-288.32 352.04,-227.72 378.7,-198.03"/>
<polygon fill="black" stroke="black" points="380.08,-199.12 382.12,-194.23 377.48,-196.78 380.08,-199.12"/>
</g>
<!-- l31&#45;&gt;l40 -->
<g id="edge116" class="edge">
<title>l31&#45;&gt;l40</title>
<path fill="none" stroke="black" d="M273.71,-272.95C297.63,-246.32 352.04,-185.72 378.7,-156.03"/>
<polygon fill="black" stroke="black" points="380.08,-157.12 382.12,-152.23 377.48,-154.78 380.08,-157.12"/>
</g>
<!-- l31&#45;&gt;l41 -->
<g id="edge117" class="edge">
<title>l31&#45;&gt;l41</title>
<path fill="none" stroke="black" d="M277.66,-278.53C301.58,-267.11 347.2,-245.33 373.65,-232.71"/>
<polygon fill="black" stroke="black" points="374.6,-234.2 378.36,-230.46 373.09,-231.04 374.6,-234.2"/>
</g>
<!-- l31&#45;&gt;l42 -->
<g id="edge118" class="edge">
<title>l31&#45;&gt;l42</title>
<path fill="none" stroke="black" d="M275.63,-275.16C299.64,-256.06 349.46,-216.43 376.17,-195.19"/>
<polygon fill="black" stroke="black" points="377.42,-196.42 380.25,-191.94 375.24,-193.68 377.42,-196.42"/>
</g>
<!-- l32&#45;&gt;l40 -->
<g id="edge119" class="edge">
<title>l32&#45;&gt;l40</title>
<path fill="none" stroke="black" d="M275.63,-233.16C299.64,-214.06 349.46,-174.43 376.17,-153.19"/>
<polygon fill="black" stroke="black" points="377.42,-154.42 380.25,-149.94 375.24,-151.68 377.42,-154.42"/>
</g>
<!-- l32&#45;&gt;l41 -->
<g id="edge120" class="edge">
<title>l32&#45;&gt;l41</title>
<path fill="none" stroke="black" d="M278.99,-241.3C302.75,-237.52 345.93,-230.65 372.08,-226.49"/>
<polygon fill="black" stroke="black" points="372.42,-228.21 377.08,-225.69 371.87,-224.75 372.42,-228.21"/>
</g>
<!-- l32&#45;&gt;l42 -->
<g id="edge121" class="edge">
<title>l32&#45;&gt;l42</title>
<path fill="none" stroke="black" d="M277.66,-236.53C301.58,-225.11 347.2,-203.33 373.65,-190.71"/>
<polygon fill="black" stroke="black" points="374.6,-192.2 378.36,-188.46 373.09,-189.04 374.6,-192.2"/>
</g>
<!-- l33&#45;&gt;l40 -->
<g id="edge122" class="edge">
<title>l33&#45;&gt;l40</title>
<path fill="none" stroke="black" d="M277.66,-194.53C301.58,-183.11 347.2,-161.33 373.65,-148.71"/>
<polygon fill="black" stroke="black" points="374.6,-150.2 378.36,-146.46 373.09,-147.04 374.6,-150.2"/>
</g>
<!-- l33&#45;&gt;l41 -->
<g id="edge123" class="edge">
<title>l33&#45;&gt;l41</title>
<path fill="none" stroke="black" d="M278.99,-204.7C302.75,-208.48 345.93,-215.35 372.08,-219.51"/>
<polygon fill="black" stroke="black" points="371.87,-221.25 377.08,-220.31 372.42,-217.79 371.87,-221.25"/>
</g>
<!-- l33&#45;&gt;l42 -->
<g id="edge124" class="edge">
<title>l33&#45;&gt;l42</title>
<path fill="none" stroke="black" d="M278.99,-199.3C302.75,-195.52 345.93,-188.65 372.08,-184.49"/>
<polygon fill="black" stroke="black" points="372.42,-186.21 377.08,-183.69 371.87,-182.75 372.42,-186.21"/>
</g>
<!-- l34&#45;&gt;l40 -->
<g id="edge125" class="edge">
<title>l34&#45;&gt;l40</title>
<path fill="none" stroke="black" d="M278.99,-157.3C302.75,-153.52 345.93,-146.65 372.08,-142.49"/>
<polygon fill="black" stroke="black" points="372.42,-144.21 377.08,-141.69 371.87,-140.75 372.42,-144.21"/>
</g>
<!-- l34&#45;&gt;l41 -->
<g id="edge126" class="edge">
<title>l34&#45;&gt;l41</title>
<path fill="none" stroke="black" d="M277.66,-167.47C301.58,-178.89 347.2,-200.67 373.65,-213.29"/>
<polygon fill="black" stroke="black" points="373.09,-214.96 378.36,-215.54 374.6,-211.8 373.09,-214.96"/>
</g>
<!-- l34&#45;&gt;l42 -->
<g id="edge127" class="edge">
<title>l34&#45;&gt;l42</title>
<path fill="none" stroke="black" d="M278.99,-162.7C302.75,-166.48 345.93,-173.35 372.08,-177.51"/>
<polygon fill="black" stroke="black" points="371.87,-179.25 377.08,-178.31 372.42,-175.79 371.87,-179.25"/>
</g>
<!-- l35&#45;&gt;l40 -->
<g id="edge128" class="edge">
<title>l35&#45;&gt;l40</title>
<path fill="none" stroke="black" d="M278.99,-120.7C302.75,-124.48 345.93,-131.35 372.08,-135.51"/>
<polygon fill="black" stroke="black" points="371.87,-137.25 377.08,-136.31 372.42,-133.79 371.87,-137.25"/>
</g>
<!-- l35&#45;&gt;l41 -->
<g id="edge129" class="edge">
<title>l35&#45;&gt;l41</title>
<path fill="none" stroke="black" d="M275.63,-128.84C299.64,-147.94 349.46,-187.57 376.17,-208.81"/>
<polygon fill="black" stroke="black" points="375.24,-210.32 380.25,-212.06 377.42,-207.58 375.24,-210.32"/>
</g>
<!-- l35&#45;&gt;l42 -->
<g id="edge130" class="edge">
<title>l35&#45;&gt;l42</title>
<path fill="none" stroke="black" d="M277.66,-125.47C301.58,-136.89 347.2,-158.67 373.65,-171.29"/>
<polygon fill="black" stroke="black" points="373.09,-172.96 378.36,-173.54 374.6,-169.8 373.09,-172.96"/>
</g>
<!-- l36&#45;&gt;l40 -->
<g id="edge131" class="edge">
<title>l36&#45;&gt;l40</title>
<path fill="none" stroke="black" d="M277.66,-83.47C301.58,-94.89 347.2,-116.67 373.65,-129.29"/>
<polygon fill="black" stroke="black" points="373.09,-130.96 378.36,-131.54 374.6,-127.8 373.09,-130.96"/>
</g>
<!-- l36&#45;&gt;l41 -->
<g id="edge132" class="edge">
<title>l36&#45;&gt;l41</title>
<path fill="none" stroke="black" d="M273.71,-89.05C297.63,-115.68 352.04,-176.28 378.7,-205.97"/>
<polygon fill="black" stroke="black" points="377.48,-207.22 382.12,-209.77 380.08,-204.88 377.48,-207.22"/>
</g>
<!-- l36&#45;&gt;l42 -->
<g id="edge133" class="edge">
<title>l36&#45;&gt;l42</title>
<path fill="none" stroke="black" d="M275.63,-86.84C299.64,-105.94 349.46,-145.57 376.17,-166.81"/>
<polygon fill="black" stroke="black" points="375.24,-168.32 380.25,-170.06 377.42,-165.58 375.24,-168.32"/>
</g>
<!-- l37&#45;&gt;l40 -->
<g id="edge134" class="edge">
<title>l37&#45;&gt;l40</title>
<path fill="none" stroke="black" d="M275.63,-44.84C299.64,-63.94 349.46,-103.57 376.17,-124.81"/>
<polygon fill="black" stroke="black" points="375.24,-126.32 380.25,-128.06 377.42,-123.58 375.24,-126.32"/>
</g>
<!-- l37&#45;&gt;l41 -->
<g id="edge135" class="edge">
<title>l37&#45;&gt;l41</title>
<path fill="none" stroke="black" d="M272.14,-48.52C295.81,-82.41 354.68,-166.71 380.97,-204.34"/>
<polygon fill="black" stroke="black" points="379.71,-205.6 384.01,-208.69 382.58,-203.59 379.71,-205.6"/>
</g>
<!-- l37&#45;&gt;l42 -->
<g id="edge136" class="edge">
<title>l37&#45;&gt;l42</title>
<path fill="none" stroke="black" d="M273.71,-47.05C297.63,-73.68 352.04,-134.28 378.7,-163.97"/>
<polygon fill="black" stroke="black" points="377.48,-165.22 382.12,-167.77 380.08,-162.88 377.48,-165.22"/>
</g>
</g>
</svg>
