<?xml version="1.0" encoding="utf-8" standalone="no"?>
<!DOCTYPE svg PUBLIC "-//W3C//DTD SVG 1.1//EN"
  "http://www.w3.org/Graphics/SVG/1.1/DTD/svg11.dtd">
<svg xmlns:xlink="http://www.w3.org/1999/xlink" width="848.506351pt" height="203.783825pt" viewBox="0 0 848.506351 203.783825" xmlns="http://www.w3.org/2000/svg" version="1.1">
 <metadata>
  <rdf:RDF xmlns:dc="http://purl.org/dc/elements/1.1/" xmlns:cc="http://creativecommons.org/ns#" xmlns:rdf="http://www.w3.org/1999/02/22-rdf-syntax-ns#">
   <cc:Work>
    <dc:type rdf:resource="http://purl.org/dc/dcmitype/StillImage"/>
    <dc:date>2026-02-19T09:10:10.899241</dc:date>
    <dc:format>image/svg+xml</dc:format>
    <dc:creator>
     <cc:Agent>
      <dc:title>Matplotlib v3.10.8, https://matplotlib.org/</dc:title>
     </cc:Agent>
    </dc:creator>
   </cc:Work>
  </rdf:RDF>
 </metadata>
 <defs>
  <style type="text/css">*{stroke-linejoin: round; stroke-linecap: butt}</style>
 </defs>
 <g id="figure_1">
  <g id="patch_1">
   <path d="M 0 203.783825 
L 848.506351 203.783825 
L 848.506351 0 
L 0 0 
z
" style="fill: #ffffff"/>
  </g>
  <g id="axes_1">
   <g id="patch_2">
    <path d="M 35.110349 162.356325 
L 267.696588 162.356325 
L 267.696588 23.272325 
L 35.110349 23.272325 
z
" style="fill: #ffffff"/>
   </g>
   <g id="matplotlib.axis_1">
    <g id="xtick_1">
     <g id="line2d_1">
      <defs>
       <path id="m47501c3ba2" d="M 0 0 
L 0 3.5 
" style="stroke: #000000; stroke-width: 0.8"/>
      </defs>
      <g>
       <use xlink:href="#m47501c3ba2" x="45.68245" y="162.356325" style="stroke: #000000; stroke-width: 0.8"/>
      </g>
     </g>
     <g id="text_1">
      <!-- 0 -->
      <g transform="translate(41.86495 178.47445) scale(0.12 -0.12)">
       <defs>
        <path id="DejaVuSans-30" d="M 2034 4250 
Q 1547 4250 1301 3770 
Q 1056 3291 1056 2328 
Q 1056 1369 1301 889 
Q 1547 409 2034 409 
Q 2525 409 2770 889 
Q 3016 1369 3016 2328 
Q 3016 3291 2770 3770 
Q 2525 4250 2034 4250 
z
M 2034 4750 
Q 2819 4750 3233 4129 
Q 3647 3509 3647 2328 
Q 3647 1150 3233 529 
Q 2819 -91 2034 -91 
Q 1250 -91 836 529 
Q 422 1150 422 2328 
Q 422 3509 836 4129 
Q 1250 4750 2034 4750 
z
" transform="scale(0.015625)"/>
       </defs>
       <use xlink:href="#DejaVuSans-30"/>
      </g>
     </g>
    </g>
    <g id="xtick_2">
     <g id="line2d_2">
      <g>
       <use xlink:href="#m47501c3ba2" x="112.986541" y="162.356325" style="stroke: #000000; stroke-width: 0.8"/>
      </g>
     </g>
     <g id="text_2">
      <!-- 1 -->
      <g transform="translate(109.169041 178.47445) scale(0.12 -0.12)">
       <defs>
        <path id="DejaVuSans-31" d="M 794 531 
L 1825 531 
L 1825 4091 
L 703 3866 
L 703 4441 
L 1819 4666 
L 2450 4666 
L 2450 531 
L 3481 531 
L 3481 0 
L 794 0 
L 794 531 
z
" transform="scale(0.015625)"/>
       </defs>
       <use xlink:href="#DejaVuSans-31"/>
      </g>
     </g>
    </g>
    <g id="xtick_3">
     <g id="line2d_3">
      <g>
       <use xlink:href="#m47501c3ba2" x="180.290631" y="162.356325" style="stroke: #000000; stroke-width: 0.8"/>
      </g>
     </g>
     <g id="text_3">
      <!-- 2 -->
      <g transform="translate(176.473131 178.47445) scale(0.12 -0.12)">
       <defs>
        <path id="DejaVuSans-32" d="M 1228 531 
L 3431 531 
L 3431 0 
L 469 0 
L 469 531 
Q 828 903 1448 1529 
Q 2069 2156 2228 2338 
Q 2531 2678 2651 2914 
Q 2772 3150 2772 3378 
Q 2772 3750 2511 3984 
Q 2250 4219 1831 4219 
Q 1534 4219 1204 4116 
Q 875 4013 500 3803 
L 500 4441 
Q 881 4594 1212 4672 
Q 1544 4750 1819 4750 
Q 2544 4750 2975 4387 
Q 3406 4025 3406 3419 
Q 3406 3131 3298 2873 
Q 3191 2616 2906 2266 
Q 2828 2175 2409 1742 
Q 1991 1309 1228 531 
z
" transform="scale(0.015625)"/>
       </defs>
       <use xlink:href="#DejaVuSans-32"/>
      </g>
     </g>
    </g>
    <g id="xtick_4">
     <g id="line2d_4">
      <g>
       <use xlink:href="#m47501c3ba2" x="247.594721" y="162.356325" style="stroke: #000000; stroke-width: 0.8"/>
      </g>
     </g>
     <g id="text_4">
      <!-- 3 -->
      <g transform="translate(243.777221 178.47445) scale(0.12 -0.12)">
       <defs>
        <path id="DejaVuSans-33" d="M 2597 2516 
Q 3050 2419 3304 2112 
Q 3559 1806 3559 1356 
Q 3559 666 3084 287 
Q 2609 -91 1734 -91 
Q 1441 -91 1130 -33 
Q 819 25 488 141 
L 488 750 
Q 750 597 1062 519 
Q 1375 441 1716 441 
Q 2309 441 2620 675 
Q 2931 909 2931 1356 
Q 2931 1769 2642 2001 
Q 2353 2234 1838 2234 
L 1294 2234 
L 1294 2753 
L 1863 2753 
Q 2328 2753 2575 2939 
Q 2822 3125 2822 3475 
Q 2822 3834 2567 4026 
Q 2313 4219 1838 4219 
Q 1578 4219 1281 4162 
Q 984 4106 628 3988 
L 628 4550 
Q 988 4650 1302 4700 
Q 1616 4750 1894 4750 
Q 2613 4750 3031 4423 
Q 3450 4097 3450 3541 
Q 3450 3153 3228 2886 
Q 3006 2619 2597 2516 
z
" transform="scale(0.015625)"/>
       </defs>
       <use xlink:href="#DejaVuSans-33"/>
      </g>
     </g>
    </g>
    <g id="text_5">
     <!-- Time (s) -->
     <g transform="translate(127.008781 194.0882) scale(0.12 -0.12)">
      <defs>
       <path id="DejaVuSans-54" d="M -19 4666 
L 3928 4666 
L 3928 4134 
L 2272 4134 
L 2272 0 
L 1638 0 
L 1638 4134 
L -19 4134 
L -19 4666 
z
" transform="scale(0.015625)"/>
       <path id="DejaVuSans-69" d="M 603 3500 
L 1178 3500 
L 1178 0 
L 603 0 
L 603 3500 
z
M 603 4863 
L 1178 4863 
L 1178 4134 
L 603 4134 
L 603 4863 
z
" transform="scale(0.015625)"/>
       <path id="DejaVuSans-6d" d="M 3328 2828 
Q 3544 3216 3844 3400 
Q 4144 3584 4550 3584 
Q 5097 3584 5394 3201 
Q 5691 2819 5691 2113 
L 5691 0 
L 5113 0 
L 5113 2094 
Q 5113 2597 4934 2840 
Q 4756 3084 4391 3084 
Q 3944 3084 3684 2787 
Q 3425 2491 3425 1978 
L 3425 0 
L 2847 0 
L 2847 2094 
Q 2847 2600 2669 2842 
Q 2491 3084 2119 3084 
Q 1678 3084 1418 2786 
Q 1159 2488 1159 1978 
L 1159 0 
L 581 0 
L 581 3500 
L 1159 3500 
L 1159 2956 
Q 1356 3278 1631 3431 
Q 1906 3584 2284 3584 
Q 2666 3584 2933 3390 
Q 3200 3197 3328 2828 
z
" transform="scale(0.015625)"/>
       <path id="DejaVuSans-65" d="M 3597 1894 
L 3597 1613 
L 953 1613 
Q 991 1019 1311 708 
Q 1631 397 2203 397 
Q 2534 397 2845 478 
Q 3156 559 3463 722 
L 3463 178 
Q 3153 47 2828 -22 
Q 2503 -91 2169 -91 
Q 1331 -91 842 396 
Q 353 884 353 1716 
Q 353 2575 817 3079 
Q 1281 3584 2069 3584 
Q 2775 3584 3186 3129 
Q 3597 2675 3597 1894 
z
M 3022 2063 
Q 3016 2534 2758 2815 
Q 2500 3097 2075 3097 
Q 1594 3097 1305 2825 
Q 1016 2553 972 2059 
L 3022 2063 
z
" transform="scale(0.015625)"/>
       <path id="DejaVuSans-20" transform="scale(0.015625)"/>
       <path id="DejaVuSans-28" d="M 1984 4856 
Q 1566 4138 1362 3434 
Q 1159 2731 1159 2009 
Q 1159 1288 1364 580 
Q 1569 -128 1984 -844 
L 1484 -844 
Q 1016 -109 783 600 
Q 550 1309 550 2009 
Q 550 2706 781 3412 
Q 1013 4119 1484 4856 
L 1984 4856 
z
" transform="scale(0.015625)"/>
       <path id="DejaVuSans-73" d="M 2834 3397 
L 2834 2853 
Q 2591 2978 2328 3040 
Q 2066 3103 1784 3103 
Q 1356 3103 1142 2972 
Q 928 2841 928 2578 
Q 928 2378 1081 2264 
Q 1234 2150 1697 2047 
L 1894 2003 
Q 2506 1872 2764 1633 
Q 3022 1394 3022 966 
Q 3022 478 2636 193 
Q 2250 -91 1575 -91 
Q 1294 -91 989 -36 
Q 684 19 347 128 
L 347 722 
Q 666 556 975 473 
Q 1284 391 1588 391 
Q 1994 391 2212 530 
Q 2431 669 2431 922 
Q 2431 1156 2273 1281 
Q 2116 1406 1581 1522 
L 1381 1569 
Q 847 1681 609 1914 
Q 372 2147 372 2553 
Q 372 3047 722 3315 
Q 1072 3584 1716 3584 
Q 2034 3584 2315 3537 
Q 2597 3491 2834 3397 
z
" transform="scale(0.015625)"/>
       <path id="DejaVuSans-29" d="M 513 4856 
L 1013 4856 
Q 1481 4119 1714 3412 
Q 1947 2706 1947 2009 
Q 1947 1309 1714 600 
Q 1481 -109 1013 -844 
L 513 -844 
Q 928 -128 1133 580 
Q 1338 1288 1338 2009 
Q 1338 2731 1133 3434 
Q 928 4138 513 4856 
z
" transform="scale(0.015625)"/>
      </defs>
      <use xlink:href="#DejaVuSans-54"/>
      <use xlink:href="#DejaVuSans-69" transform="translate(57.958984 0)"/>
      <use xlink:href="#DejaVuSans-6d" transform="translate(85.742188 0)"/>
      <use xlink:href="#DejaVuSans-65" transform="translate(183.154297 0)"/>
      <use xlink:href="#DejaVuSans-20" transform="translate(244.677734 0)"/>
      <use xlink:href="#DejaVuSans-28" transform="translate(276.464844 0)"/>
      <use xlink:href="#DejaVuSans-73" transform="translate(315.478516 0)"/>
      <use xlink:href="#DejaVuSans-29" transform="translate(367.578125 0)"/>
     </g>
    </g>
   </g>
   <g id="matplotlib.axis_2">
    <g id="ytick_1">
     <g id="line2d_5">
      <defs>
       <path id="me7f3e652cc" d="M 0 0 
L -3.5 0 
" style="stroke: #000000; stroke-width: 0.8"/>
      </defs>
      <g>
       <use xlink:href="#me7f3e652cc" x="35.110349" y="146.36905" style="stroke: #000000; stroke-width: 0.8"/>
      </g>
     </g>
     <g id="text_6">
      <!-- 0 -->
      <g transform="translate(20.475349 150.928112) scale(0.12 -0.12)">
       <use xlink:href="#DejaVuSans-30"/>
      </g>
     </g>
    </g>
    <g id="ytick_2">
     <g id="line2d_6">
      <g>
       <use xlink:href="#me7f3e652cc" x="35.110349" y="93.037001" style="stroke: #000000; stroke-width: 0.8"/>
      </g>
     </g>
     <g id="text_7">
      <!-- 5 -->
      <g transform="translate(20.475349 97.596064) scale(0.12 -0.12)">
       <defs>
        <path id="DejaVuSans-35" d="M 691 4666 
L 3169 4666 
L 3169 4134 
L 1269 4134 
L 1269 2991 
Q 1406 3038 1543 3061 
Q 1681 3084 1819 3084 
Q 2600 3084 3056 2656 
Q 3513 2228 3513 1497 
Q 3513 744 3044 326 
Q 2575 -91 1722 -91 
Q 1428 -91 1123 -41 
Q 819 9 494 109 
L 494 744 
Q 775 591 1075 516 
Q 1375 441 1709 441 
Q 2250 441 2565 725 
Q 2881 1009 2881 1497 
Q 2881 1984 2565 2268 
Q 2250 2553 1709 2553 
Q 1456 2553 1204 2497 
Q 953 2441 691 2322 
L 691 4666 
z
" transform="scale(0.015625)"/>
       </defs>
       <use xlink:href="#DejaVuSans-35"/>
      </g>
     </g>
    </g>
    <g id="ytick_3">
     <g id="line2d_7">
      <g>
       <use xlink:href="#me7f3e652cc" x="35.110349" y="39.704953" style="stroke: #000000; stroke-width: 0.8"/>
      </g>
     </g>
     <g id="text_8">
      <!-- 10 -->
      <g transform="translate(12.840349 44.264015) scale(0.12 -0.12)">
       <use xlink:href="#DejaVuSans-31"/>
       <use xlink:href="#DejaVuSans-30" transform="translate(63.623047 0)"/>
      </g>
     </g>
    </g>
   </g>
   <g id="line2d_8">
    <path d="M 45.68245 146.36905 
L 47.903147 135.345712 
L 48.960622 131.152316 
L 49.806601 128.612737 
L 50.49396 127.179251 
L 51.075571 126.443866 
L 51.551434 126.178722 
L 51.974424 126.198896 
L 52.397414 126.457137 
L 52.873277 127.024374 
L 53.454888 128.095318 
L 54.142247 129.849045 
L 55.0411 132.813205 
L 56.31007 137.888725 
L 59.165251 149.600599 
L 60.169852 152.689167 
L 60.962958 154.463654 
L 61.597442 155.411839 
L 62.179053 155.900994 
L 62.654917 156.034012 
L 63.13078 155.936369 
L 63.659518 155.575902 
L 64.294002 154.83253 
L 65.087108 153.518029 
L 66.303204 150.993207 
L 68.153785 147.172392 
L 68.999764 145.896129 
L 69.687123 145.220284 
L 70.268734 144.939624 
L 70.797471 144.928312 
L 71.326208 145.148521 
L 71.907819 145.644651 
L 72.595178 146.534677 
L 73.546905 148.177449 
L 76.190591 152.999694 
L 76.87795 153.704405 
L 77.406687 153.947384 
L 77.829677 153.924644 
L 78.252666 153.691634 
L 78.72853 153.164297 
L 79.257267 152.239311 
L 79.891752 150.659578 
L 80.684858 148.004482 
L 81.636585 143.971424 
L 83.117049 136.579493 
L 84.914756 127.833367 
L 85.813609 124.456662 
L 86.500968 122.615441 
L 87.029705 121.717551 
L 87.452695 121.351582 
L 87.822811 121.298314 
L 88.192927 121.497772 
L 88.615917 122.033988 
L 89.091781 123.020507 
L 89.726265 124.929269 
L 90.519371 128.150803 
L 91.576846 133.51765 
L 94.643522 149.793744 
L 95.489502 152.82923 
L 96.123986 154.371204 
L 96.652724 155.131255 
L 97.075713 155.388312 
L 97.445829 155.360529 
L 97.815946 155.104945 
L 98.291809 154.461722 
L 98.87342 153.245051 
L 99.613652 151.141676 
L 100.829748 146.886854 
L 102.468834 141.268362 
L 103.314813 139.138058 
L 103.949298 138.081489 
L 104.478035 137.599065 
L 104.901025 137.480126 
L 105.324015 137.592786 
L 105.799878 137.978541 
L 106.381489 138.776121 
L 107.174595 140.297668 
L 109.501039 145.061901 
L 110.08265 145.66942 
L 110.50564 145.831675 
L 110.875756 145.752594 
L 111.245872 145.45067 
L 111.668862 144.819462 
L 112.197599 143.592266 
L 112.832084 141.490369 
L 113.62519 137.990487 
L 114.682665 132.194209 
L 117.273477 117.541625 
L 118.066583 114.499363 
L 118.648194 113.050953 
L 119.124058 112.421047 
L 119.4413 112.291632 
L 119.758542 112.397357 
L 120.128658 112.815187 
L 120.551648 113.668901 
L 121.080386 115.262352 
L 121.767744 118.09159 
L 122.772345 123.330009 
L 125.204536 136.457401 
L 125.944768 139.199332 
L 126.526379 140.644867 
L 127.002243 141.320829 
L 127.372359 141.525833 
L 127.689601 141.48245 
L 128.059718 141.187486 
L 128.535581 140.452308 
L 129.117192 139.08906 
L 129.963172 136.460973 
L 132.025247 129.777048 
L 132.659732 128.467078 
L 133.135595 127.892264 
L 133.558585 127.708508 
L 133.928701 127.810055 
L 134.298817 128.155477 
L 134.774681 128.942015 
L 135.356292 130.370359 
L 136.202272 133.13541 
L 138.370094 140.56515 
L 138.951705 141.729085 
L 139.374695 142.16382 
L 139.691938 142.230645 
L 140.00918 142.059419 
L 140.379296 141.54661 
L 140.802286 140.540683 
L 141.331023 138.663601 
L 142.018382 135.272072 
L 142.917235 129.533872 
L 146.089659 107.905915 
L 146.777017 105.175125 
L 147.305754 103.900867 
L 147.728744 103.42179 
L 148.045986 103.374575 
L 148.363229 103.584857 
L 148.733345 104.135518 
L 149.209208 105.275583 
L 149.896567 107.606468 
L 151.165536 112.967759 
L 152.275885 117.235607 
L 152.910369 118.923149 
L 153.386233 119.685457 
L 153.756349 119.94732 
L 154.073591 119.933994 
L 154.390834 119.702742 
L 154.813824 119.06954 
L 155.342561 117.806972 
L 156.082793 115.354606 
L 158.462111 106.853602 
L 158.990848 105.898019 
L 159.360964 105.601576 
L 159.678206 105.615972 
L 159.995449 105.889131 
L 160.365565 106.539365 
L 160.841428 107.889319 
L 161.423039 110.26278 
L 162.216145 114.527016 
L 164.965579 130.375023 
L 165.54719 132.191823 
L 165.97018 132.902855 
L 166.287422 133.073608 
L 166.551791 132.973136 
L 166.869033 132.562134 
L 167.292023 131.535655 
L 167.82076 129.541682 
L 168.508119 125.965366 
L 169.618467 118.771261 
L 171.098932 109.434246 
L 171.839164 106.071555 
L 172.420775 104.359639 
L 172.843765 103.67281 
L 173.213881 103.454324 
L 173.531123 103.536236 
L 173.901239 103.91713 
L 174.377103 104.7886 
L 175.117335 106.723608 
L 176.544925 110.55515 
L 177.073663 111.352132 
L 177.443779 111.554176 
L 177.761021 111.455943 
L 178.078264 111.087125 
L 178.44838 110.300926 
L 178.924243 108.725237 
L 179.505854 105.986742 
L 180.29896 101.075754 
L 183.048394 82.855847 
L 183.630005 80.798744 
L 184.052995 80.002695 
L 184.370237 79.815155 
L 184.634606 79.928989 
L 184.951848 80.383366 
L 185.374838 81.500528 
L 185.903575 83.626916 
L 186.643807 87.638611 
L 189.023125 101.316276 
L 189.604736 103.162373 
L 190.027726 103.878339 
L 190.344968 104.052658 
L 190.609337 103.962281 
L 190.926579 103.581898 
L 191.349569 102.64998 
L 191.93118 100.70929 
L 192.882907 96.559929 
L 194.046129 91.706937 
L 194.62774 90.117105 
L 195.05073 89.50838 
L 195.367972 89.396129 
L 195.632341 89.539046 
L 195.949583 89.996772 
L 196.372573 91.079293 
L 196.901311 93.122038 
L 197.641543 96.971878 
L 199.756492 108.548452 
L 200.285229 110.130921 
L 200.655345 110.677421 
L 200.919714 110.75739 
L 201.184082 110.568985 
L 201.501325 109.985509 
L 201.924315 108.613853 
L 202.453052 106.01697 
L 203.193284 101.049034 
L 206.048465 80.246227 
L 206.577203 78.290468 
L 207.000192 77.417947 
L 207.317435 77.164546 
L 207.581803 77.202709 
L 207.899046 77.52309 
L 208.322036 78.351611 
L 208.95652 80.210642 
L 210.489858 84.97675 
L 210.965722 85.713604 
L 211.282964 85.852424 
L 211.547333 85.724212 
L 211.864575 85.259395 
L 212.234691 84.277471 
L 212.710555 82.333886 
L 213.34504 78.68112 
L 214.296767 71.666518 
L 215.777231 60.838184 
L 216.411716 57.687461 
L 216.887579 56.290022 
L 217.204822 55.872935 
L 217.46919 55.849604 
L 217.733559 56.119159 
L 218.050801 56.816255 
L 218.473791 58.331357 
L 219.055402 61.32659 
L 220.060003 67.945837 
L 221.223225 75.243631 
L 221.85771 77.919418 
L 222.2807 78.942013 
L 222.597942 79.269705 
L 222.862311 79.251188 
L 223.126679 78.973639 
L 223.496795 78.175934 
L 223.972659 76.538005 
L 224.712891 73.028624 
L 226.246229 65.559952 
L 226.774966 64.048368 
L 227.145083 63.546082 
L 227.409451 63.498352 
L 227.67382 63.718861 
L 227.991062 64.336673 
L 228.414052 65.732429 
L 228.995663 68.576722 
L 229.894516 74.319555 
L 231.163486 82.196219 
L 231.745097 84.509335 
L 232.168087 85.367558 
L 232.432455 85.506472 
L 232.64395 85.38828 
L 232.908319 84.951799 
L 233.278435 83.812546 
L 233.754298 81.506514 
L 234.388783 77.221405 
L 235.657753 66.657427 
L 236.60948 59.598383 
L 237.243964 56.38242 
L 237.719828 54.992954 
L 238.03707 54.576473 
L 238.301439 54.53167 
L 238.565808 54.7439 
L 238.935924 55.424341 
L 239.464661 57.00013 
L 241.315241 63.135881 
L 241.685358 63.526657 
L 241.949726 63.493376 
L 242.214095 63.175354 
L 242.531337 62.400954 
L 242.954327 60.697728 
L 243.483064 57.556502 
L 244.223296 51.658625 
L 246.391119 33.385726 
L 246.919857 30.879029 
L 247.342846 29.816056 
L 247.607215 29.597131 
L 247.81871 29.666521 
L 248.083079 30.047952 
L 248.453195 31.091619 
L 248.929058 33.174733 
L 249.722164 37.835227 
L 250.991134 45.184803 
L 251.519871 47.086146 
L 251.889987 47.773085 
L 252.154356 47.907186 
L 252.36585 47.796156 
L 252.630219 47.388415 
L 253.000335 46.342263 
L 253.529072 44.019391 
L 254.375052 39.02926 
L 255.4854 32.672808 
L 256.014138 30.752354 
L 256.384254 30.082795 
L 256.648622 29.988622 
L 256.860117 30.153272 
L 257.124486 30.660424 
L 257.124486 30.660424 
" clip-path="url(#pd4b48bf498)" style="fill: none; stroke: #000000; stroke-width: 2; stroke-linecap: square"/>
   </g>
   <g id="patch_3">
    <path d="M 32.455424 162.356325 
Q 151.400729 162.356325 269.227999 162.356325 
" style="fill: none; stroke: #000000; stroke-linecap: round"/>
    <path d="M 265.227999 160.356325 
L 269.227999 162.356325 
L 265.227999 164.356325 
" style="fill: none; stroke: #000000; stroke-linecap: round"/>
   </g>
   <g id="patch_4">
    <path d="M 35.110349 163.138333 
Q 35.110349 92.813563 35.110349 23.606826 
" style="fill: none; stroke: #000000; stroke-linecap: round"/>
    <path d="M 33.110349 27.606826 
L 35.110349 23.606826 
L 37.110349 27.606826 
" style="fill: none; stroke: #000000; stroke-linecap: round"/>
   </g>
   <g id="text_9">
    <!-- (a) -->
    <g transform="translate(7.2 16.318125) scale(0.12 -0.12)">
     <defs>
      <path id="DejaVuSans-61" d="M 2194 1759 
Q 1497 1759 1228 1600 
Q 959 1441 959 1056 
Q 959 750 1161 570 
Q 1363 391 1709 391 
Q 2188 391 2477 730 
Q 2766 1069 2766 1631 
L 2766 1759 
L 2194 1759 
z
M 3341 1997 
L 3341 0 
L 2766 0 
L 2766 531 
Q 2569 213 2275 61 
Q 1981 -91 1556 -91 
Q 1019 -91 701 211 
Q 384 513 384 1019 
Q 384 1609 779 1909 
Q 1175 2209 1959 2209 
L 2766 2209 
L 2766 2266 
Q 2766 2663 2505 2880 
Q 2244 3097 1772 3097 
Q 1472 3097 1187 3025 
Q 903 2953 641 2809 
L 641 3341 
Q 956 3463 1253 3523 
Q 1550 3584 1831 3584 
Q 2591 3584 2966 3190 
Q 3341 2797 3341 1997 
z
" transform="scale(0.015625)"/>
     </defs>
     <use xlink:href="#DejaVuSans-28"/>
     <use xlink:href="#DejaVuSans-61" transform="translate(39.013672 0)"/>
     <use xlink:href="#DejaVuSans-29" transform="translate(100.292969 0)"/>
    </g>
   </g>
   <g id="legend_1">
    <g id="line2d_9">
     <path d="M 45.910349 38.99045 
L 57.910349 38.99045 
L 69.910349 38.99045 
" style="fill: none; stroke: #000000; stroke-width: 2; stroke-linecap: square"/>
    </g>
    <g id="text_10">
     <!-- Original signal -->
     <g transform="translate(79.510349 43.19045) scale(0.12 -0.12)">
      <defs>
       <path id="DejaVuSans-4f" d="M 2522 4238 
Q 1834 4238 1429 3725 
Q 1025 3213 1025 2328 
Q 1025 1447 1429 934 
Q 1834 422 2522 422 
Q 3209 422 3611 934 
Q 4013 1447 4013 2328 
Q 4013 3213 3611 3725 
Q 3209 4238 2522 4238 
z
M 2522 4750 
Q 3503 4750 4090 4092 
Q 4678 3434 4678 2328 
Q 4678 1225 4090 567 
Q 3503 -91 2522 -91 
Q 1538 -91 948 565 
Q 359 1222 359 2328 
Q 359 3434 948 4092 
Q 1538 4750 2522 4750 
z
" transform="scale(0.015625)"/>
       <path id="DejaVuSans-72" d="M 2631 2963 
Q 2534 3019 2420 3045 
Q 2306 3072 2169 3072 
Q 1681 3072 1420 2755 
Q 1159 2438 1159 1844 
L 1159 0 
L 581 0 
L 581 3500 
L 1159 3500 
L 1159 2956 
Q 1341 3275 1631 3429 
Q 1922 3584 2338 3584 
Q 2397 3584 2469 3576 
Q 2541 3569 2628 3553 
L 2631 2963 
z
" transform="scale(0.015625)"/>
       <path id="DejaVuSans-67" d="M 2906 1791 
Q 2906 2416 2648 2759 
Q 2391 3103 1925 3103 
Q 1463 3103 1205 2759 
Q 947 2416 947 1791 
Q 947 1169 1205 825 
Q 1463 481 1925 481 
Q 2391 481 2648 825 
Q 2906 1169 2906 1791 
z
M 3481 434 
Q 3481 -459 3084 -895 
Q 2688 -1331 1869 -1331 
Q 1566 -1331 1297 -1286 
Q 1028 -1241 775 -1147 
L 775 -588 
Q 1028 -725 1275 -790 
Q 1522 -856 1778 -856 
Q 2344 -856 2625 -561 
Q 2906 -266 2906 331 
L 2906 616 
Q 2728 306 2450 153 
Q 2172 0 1784 0 
Q 1141 0 747 490 
Q 353 981 353 1791 
Q 353 2603 747 3093 
Q 1141 3584 1784 3584 
Q 2172 3584 2450 3431 
Q 2728 3278 2906 2969 
L 2906 3500 
L 3481 3500 
L 3481 434 
z
" transform="scale(0.015625)"/>
       <path id="DejaVuSans-6e" d="M 3513 2113 
L 3513 0 
L 2938 0 
L 2938 2094 
Q 2938 2591 2744 2837 
Q 2550 3084 2163 3084 
Q 1697 3084 1428 2787 
Q 1159 2491 1159 1978 
L 1159 0 
L 581 0 
L 581 3500 
L 1159 3500 
L 1159 2956 
Q 1366 3272 1645 3428 
Q 1925 3584 2291 3584 
Q 2894 3584 3203 3211 
Q 3513 2838 3513 2113 
z
" transform="scale(0.015625)"/>
       <path id="DejaVuSans-6c" d="M 603 4863 
L 1178 4863 
L 1178 0 
L 603 0 
L 603 4863 
z
" transform="scale(0.015625)"/>
      </defs>
      <use xlink:href="#DejaVuSans-4f"/>
      <use xlink:href="#DejaVuSans-72" transform="translate(78.710938 0)"/>
      <use xlink:href="#DejaVuSans-69" transform="translate(119.824219 0)"/>
      <use xlink:href="#DejaVuSans-67" transform="translate(147.607422 0)"/>
      <use xlink:href="#DejaVuSans-69" transform="translate(211.083984 0)"/>
      <use xlink:href="#DejaVuSans-6e" transform="translate(238.867188 0)"/>
      <use xlink:href="#DejaVuSans-61" transform="translate(302.246094 0)"/>
      <use xlink:href="#DejaVuSans-6c" transform="translate(363.525391 0)"/>
      <use xlink:href="#DejaVuSans-20" transform="translate(391.308594 0)"/>
      <use xlink:href="#DejaVuSans-73" transform="translate(423.095703 0)"/>
      <use xlink:href="#DejaVuSans-69" transform="translate(475.195312 0)"/>
      <use xlink:href="#DejaVuSans-67" transform="translate(502.978516 0)"/>
      <use xlink:href="#DejaVuSans-6e" transform="translate(566.455078 0)"/>
      <use xlink:href="#DejaVuSans-61" transform="translate(629.833984 0)"/>
      <use xlink:href="#DejaVuSans-6c" transform="translate(691.113281 0)"/>
     </g>
    </g>
   </g>
  </g>
  <g id="axes_2">
   <g id="patch_5">
    <path d="M 321.149525 162.356325 
L 553.735764 162.356325 
L 553.735764 23.272325 
L 321.149525 23.272325 
z
" style="fill: #ffffff"/>
   </g>
   <g id="patch_6">
    <path d="M 383.286238 101.327871 
Q 390.613204 112.652947 397.029199 122.569963 
" clip-path="url(#pa8d91c622d)" style="fill: none; stroke: #f7c6c7; stroke-width: 1.5; stroke-linecap: round"/>
    <path d="M 396.140752 114.569296 
L 397.029199 122.569963 
L 390.095598 118.48032 
" clip-path="url(#pa8d91c622d)" style="fill: none; stroke: #f7c6c7; stroke-width: 1.5; stroke-linecap: round"/>
   </g>
   <g id="patch_7">
    <path d="M 476.040098 136.174097 
Q 473.06003 120.973623 470.402607 107.41887 
" clip-path="url(#pa8d91c622d)" style="fill: none; stroke: #f7c6c7; stroke-width: 1.5; stroke-linecap: round"/>
    <path d="M 468.255056 115.176965 
L 470.402607 107.41887 
L 475.320552 113.791767 
" clip-path="url(#pa8d91c622d)" style="fill: none; stroke: #f7c6c7; stroke-width: 1.5; stroke-linecap: round"/>
   </g>
   <g id="matplotlib.axis_3">
    <g id="xtick_5">
     <g id="line2d_10">
      <g>
       <use xlink:href="#m47501c3ba2" x="331.721626" y="162.356325" style="stroke: #000000; stroke-width: 0.8"/>
      </g>
     </g>
     <g id="text_11">
      <!-- 0 -->
      <g transform="translate(327.904126 178.47445) scale(0.12 -0.12)">
       <use xlink:href="#DejaVuSans-30"/>
      </g>
     </g>
    </g>
    <g id="xtick_6">
     <g id="line2d_11">
      <g>
       <use xlink:href="#m47501c3ba2" x="399.025717" y="162.356325" style="stroke: #000000; stroke-width: 0.8"/>
      </g>
     </g>
     <g id="text_12">
      <!-- 1 -->
      <g transform="translate(395.208217 178.47445) scale(0.12 -0.12)">
       <use xlink:href="#DejaVuSans-31"/>
      </g>
     </g>
    </g>
    <g id="xtick_7">
     <g id="line2d_12">
      <g>
       <use xlink:href="#m47501c3ba2" x="466.329807" y="162.356325" style="stroke: #000000; stroke-width: 0.8"/>
      </g>
     </g>
     <g id="text_13">
      <!-- 2 -->
      <g transform="translate(462.512307 178.47445) scale(0.12 -0.12)">
       <use xlink:href="#DejaVuSans-32"/>
      </g>
     </g>
    </g>
    <g id="xtick_8">
     <g id="line2d_13">
      <g>
       <use xlink:href="#m47501c3ba2" x="533.633897" y="162.356325" style="stroke: #000000; stroke-width: 0.8"/>
      </g>
     </g>
     <g id="text_14">
      <!-- 3 -->
      <g transform="translate(529.816397 178.47445) scale(0.12 -0.12)">
       <use xlink:href="#DejaVuSans-33"/>
      </g>
     </g>
    </g>
    <g id="text_15">
     <!-- Time (s) -->
     <g transform="translate(413.047957 194.0882) scale(0.12 -0.12)">
      <use xlink:href="#DejaVuSans-54"/>
      <use xlink:href="#DejaVuSans-69" transform="translate(57.958984 0)"/>
      <use xlink:href="#DejaVuSans-6d" transform="translate(85.742188 0)"/>
      <use xlink:href="#DejaVuSans-65" transform="translate(183.154297 0)"/>
      <use xlink:href="#DejaVuSans-20" transform="translate(244.677734 0)"/>
      <use xlink:href="#DejaVuSans-28" transform="translate(276.464844 0)"/>
      <use xlink:href="#DejaVuSans-73" transform="translate(315.478516 0)"/>
      <use xlink:href="#DejaVuSans-29" transform="translate(367.578125 0)"/>
     </g>
    </g>
   </g>
   <g id="matplotlib.axis_4">
    <g id="ytick_4">
     <g id="line2d_14">
      <g>
       <use xlink:href="#me7f3e652cc" x="321.149525" y="146.461913" style="stroke: #000000; stroke-width: 0.8"/>
      </g>
     </g>
     <g id="text_16">
      <!-- 0 -->
      <g transform="translate(306.514525 151.020976) scale(0.12 -0.12)">
       <use xlink:href="#DejaVuSans-30"/>
      </g>
     </g>
    </g>
    <g id="ytick_5">
     <g id="line2d_15">
      <g>
       <use xlink:href="#me7f3e652cc" x="321.149525" y="94.446934" style="stroke: #000000; stroke-width: 0.8"/>
      </g>
     </g>
     <g id="text_17">
      <!-- 5 -->
      <g transform="translate(306.514525 99.005997) scale(0.12 -0.12)">
       <use xlink:href="#DejaVuSans-35"/>
      </g>
     </g>
    </g>
    <g id="ytick_6">
     <g id="line2d_16">
      <g>
       <use xlink:href="#me7f3e652cc" x="321.149525" y="42.431955" style="stroke: #000000; stroke-width: 0.8"/>
      </g>
     </g>
     <g id="text_18">
      <!-- 10 -->
      <g transform="translate(298.879525 46.991018) scale(0.12 -0.12)">
       <use xlink:href="#DejaVuSans-31"/>
       <use xlink:href="#DejaVuSans-30" transform="translate(63.623047 0)"/>
      </g>
     </g>
    </g>
   </g>
   <g id="line2d_17">
    <path d="M 331.721626 146.461913 
L 333.942323 135.710803 
L 334.999798 131.620967 
L 335.845777 129.144104 
L 336.533136 127.746019 
L 337.114747 127.028795 
L 337.59061 126.770199 
L 338.0136 126.789874 
L 338.43659 127.041738 
L 338.912453 127.594967 
L 339.494064 128.639463 
L 340.181423 130.34988 
L 341.080276 133.240839 
L 342.349246 138.191015 
L 345.204427 149.613658 
L 346.209028 152.625951 
L 347.002134 154.356616 
L 347.636618 155.281385 
L 348.218229 155.75846 
L 348.694093 155.888193 
L 349.169957 155.792961 
L 349.698694 155.441396 
L 350.333179 154.716383 
L 351.126284 153.434344 
L 352.34238 150.971874 
L 354.192961 147.245416 
L 355.091814 145.937868 
L 355.779172 145.305531 
L 356.360783 145.05642 
L 356.889521 145.068172 
L 357.418258 145.305092 
L 357.999869 145.811427 
L 358.740101 146.781593 
L 359.744702 148.522948 
L 362.071146 152.718788 
L 362.758504 153.492741 
L 363.287242 153.811538 
L 363.763105 153.85516 
L 364.186095 153.680381 
L 364.661959 153.227821 
L 365.190696 152.395637 
L 365.825181 150.937297 
L 366.565413 148.63002 
L 367.464266 145.063198 
L 368.786109 138.777828 
L 371.006806 128.165435 
L 371.905659 124.9282 
L 372.593018 123.186669 
L 373.121755 122.357521 
L 373.544745 122.039834 
L 373.914861 122.02299 
L 374.284977 122.252765 
L 374.707967 122.815449 
L 375.236704 123.955708 
L 375.871189 125.921604 
L 376.664295 129.170914 
L 377.774643 134.781107 
L 380.524077 149.139519 
L 381.370056 152.286568 
L 382.057415 154.061572 
L 382.586152 154.897489 
L 383.009142 155.224192 
L 383.379258 155.262171 
L 383.749374 155.075345 
L 384.172364 154.600485 
L 384.701101 153.648709 
L 385.38846 151.907989 
L 386.393061 148.655746 
L 388.719505 140.901139 
L 389.51261 139.106104 
L 390.094221 138.256063 
L 390.570085 137.881384 
L 390.993075 137.794094 
L 391.416065 137.931405 
L 391.891928 138.33574 
L 392.473539 139.142187 
L 393.319519 140.76336 
L 395.434468 145.039124 
L 396.016079 145.702114 
L 396.491942 145.931915 
L 396.862059 145.884703 
L 397.232175 145.622033 
L 397.655164 145.044119 
L 398.183902 143.894704 
L 398.818386 141.899078 
L 399.611492 138.543808 
L 400.668967 132.940094 
L 403.365527 118.115744 
L 404.105759 115.379269 
L 404.68737 113.966629 
L 405.163234 113.352278 
L 405.53335 113.227323 
L 405.850592 113.368581 
L 406.220708 113.819715 
L 406.696572 114.836127 
L 407.278183 116.691634 
L 408.018415 119.871316 
L 409.128763 125.7572 
L 411.032217 135.873374 
L 411.825323 138.974753 
L 412.459808 140.671386 
L 412.988545 141.487496 
L 413.358661 141.726359 
L 413.675904 141.716437 
L 414.04602 141.464522 
L 414.46901 140.882088 
L 415.050621 139.635547 
L 415.843727 137.318102 
L 418.275918 129.792645 
L 418.857529 128.774579 
L 419.333393 128.338056 
L 419.703509 128.266014 
L 420.073625 128.433479 
L 420.496615 128.913356 
L 421.025352 129.918135 
L 421.71271 131.79406 
L 422.770185 135.461576 
L 424.144902 140.108549 
L 424.83226 141.685939 
L 425.308124 142.289438 
L 425.67824 142.430657 
L 425.995482 142.303111 
L 426.365598 141.850445 
L 426.788588 140.923962 
L 427.317325 139.159124 
L 427.95181 136.210293 
L 428.79779 131.111954 
L 430.331128 120.127576 
L 431.600097 111.713246 
L 432.393203 107.790946 
L 433.027688 105.701043 
L 433.503552 104.81231 
L 433.873668 104.531329 
L 434.19091 104.570284 
L 434.508152 104.856116 
L 434.931142 105.592581 
L 435.459879 107.009467 
L 436.252985 109.894353 
L 438.526556 118.671937 
L 439.108167 119.991747 
L 439.58403 120.582196 
L 439.954146 120.712997 
L 440.271389 120.593152 
L 440.641505 120.189175 
L 441.117368 119.279898 
L 441.751853 117.48899 
L 442.70358 114.011592 
L 444.131171 108.885828 
L 444.765655 107.384935 
L 445.241519 106.785999 
L 445.558761 106.677164 
L 445.876004 106.816547 
L 446.24612 107.301511 
L 446.66911 108.279379 
L 447.197847 110.105431 
L 447.885205 113.346086 
L 448.94268 119.577991 
L 450.528892 128.802356 
L 451.21625 131.610054 
L 451.744987 132.956557 
L 452.115104 133.418029 
L 452.432346 133.481508 
L 452.696715 133.297324 
L 453.013957 132.794765 
L 453.436947 131.664866 
L 453.965684 129.577661 
L 454.705916 125.636413 
L 456.080633 116.754841 
L 457.243855 109.900213 
L 457.984087 106.793013 
L 458.512825 105.380951 
L 458.935814 104.768652 
L 459.253057 104.606995 
L 459.570299 104.686884 
L 459.940415 105.058372 
L 460.416279 105.908319 
L 461.156511 107.795541 
L 462.584102 111.532461 
L 463.112839 112.309761 
L 463.482955 112.506815 
L 463.800197 112.411009 
L 464.11744 112.051299 
L 464.487556 111.284515 
L 464.963419 109.747738 
L 465.54503 107.076873 
L 466.338136 102.287165 
L 469.08757 84.51721 
L 469.669181 82.510909 
L 470.092171 81.734518 
L 470.409413 81.55161 
L 470.673782 81.662633 
L 470.991024 82.105789 
L 471.414014 83.195361 
L 471.942751 85.269237 
L 472.682983 89.181861 
L 475.062301 102.521747 
L 475.643912 104.322254 
L 476.066902 105.020539 
L 476.384144 105.190552 
L 476.648513 105.102407 
L 476.965755 104.731418 
L 477.388745 103.822514 
L 477.970356 101.929751 
L 478.922083 97.882861 
L 480.085305 93.149717 
L 480.666916 91.599147 
L 481.089906 91.005455 
L 481.407148 90.895976 
L 481.671517 91.035364 
L 481.988759 91.481785 
L 482.411749 92.537573 
L 482.940487 94.529871 
L 483.680719 98.284637 
L 485.795668 109.575319 
L 486.324405 111.118709 
L 486.694521 111.651713 
L 486.95889 111.729706 
L 487.223258 111.545955 
L 487.540501 110.976887 
L 487.963491 109.639105 
L 488.492228 107.106354 
L 489.23246 102.261105 
L 492.087641 81.972036 
L 492.616379 80.064576 
L 493.039368 79.213602 
L 493.356611 78.966459 
L 493.620979 79.003681 
L 493.938222 79.316149 
L 494.361212 80.124209 
L 494.995696 81.93733 
L 496.529034 86.585737 
L 497.004898 87.304393 
L 497.32214 87.439785 
L 497.586509 87.314739 
L 497.903751 86.861401 
L 498.273867 85.903727 
L 498.749731 84.008139 
L 499.384216 80.44558 
L 500.335943 73.604209 
L 501.816407 63.043287 
L 502.450892 59.970374 
L 502.926755 58.607446 
L 503.243998 58.200659 
L 503.508366 58.177904 
L 503.772735 58.440802 
L 504.089977 59.120683 
L 504.512967 60.598369 
L 505.094578 63.519632 
L 506.099179 69.975413 
L 507.262401 77.092982 
L 507.896886 79.70269 
L 508.319876 80.700031 
L 508.637118 81.019631 
L 508.901487 81.00157 
L 509.165855 80.730876 
L 509.535971 79.952871 
L 510.011835 78.355392 
L 510.752067 74.932677 
L 512.285405 67.648449 
L 512.814142 66.174194 
L 513.184259 65.684313 
L 513.448627 65.637762 
L 513.712996 65.852824 
L 514.030238 66.455379 
L 514.453228 67.816666 
L 515.034839 70.590717 
L 515.933692 76.191728 
L 517.202662 83.873872 
L 517.784273 86.129865 
L 518.207263 86.966893 
L 518.471631 87.102376 
L 518.683126 86.987103 
L 518.947495 86.561401 
L 519.317611 85.450283 
L 519.793474 83.2012 
L 520.427959 79.021915 
L 521.696929 68.718821 
L 522.648656 61.834104 
L 523.28314 58.697561 
L 523.759004 57.342409 
L 524.076246 56.936213 
L 524.340615 56.892517 
L 524.604984 57.099507 
L 524.9751 57.763144 
L 525.503837 59.300017 
L 527.354417 65.284242 
L 527.724534 65.665367 
L 527.988902 65.632908 
L 528.253271 65.32274 
L 528.570513 64.567464 
L 528.993503 62.906301 
L 529.52224 59.842649 
L 530.262472 54.090424 
L 532.430295 36.268786 
L 532.959033 33.823994 
L 533.382022 32.787271 
L 533.646391 32.573753 
L 533.857886 32.641429 
L 534.122255 33.013441 
L 534.492371 34.031333 
L 535.021108 36.329925 
L 535.867088 41.263974 
L 536.977436 47.540285 
L 537.559047 49.630865 
L 537.929163 50.30084 
L 538.193532 50.431629 
L 538.405026 50.323341 
L 538.669395 49.925669 
L 539.039511 48.905353 
L 539.568248 46.639846 
L 540.414228 41.772949 
L 541.524576 35.573474 
L 542.053314 33.700447 
L 542.42343 33.047423 
L 542.687798 32.955576 
L 542.899293 33.11616 
L 543.163662 33.610787 
L 543.163662 33.610787 
" clip-path="url(#pa8d91c622d)" style="fill: none; stroke: #000000; stroke-width: 2; stroke-linecap: square"/>
   </g>
   <g id="line2d_18">
    <path d="M 331.721626 146.461913 
L 334.576808 135.582334 
L 336.004398 130.979168 
L 337.114747 128.075876 
L 338.0136 126.27787 
L 338.806706 125.140337 
L 339.546938 124.435358 
L 340.234297 124.066517 
L 340.921655 123.952139 
L 341.609013 124.072004 
L 342.349246 124.439863 
L 343.195225 125.13182 
L 344.146952 126.211437 
L 345.310174 127.888433 
L 346.790639 130.445466 
L 349.22283 135.172792 
L 351.760769 139.959212 
L 353.18836 142.210033 
L 354.351582 143.6486 
L 355.303309 144.487507 
L 356.096415 144.912393 
L 356.783773 145.053492 
L 357.471132 144.975889 
L 358.211364 144.665302 
L 359.057344 144.049224 
L 360.009071 143.061854 
L 361.119419 141.575364 
L 362.494136 139.34026 
L 364.39759 135.768317 
L 368.997604 126.945937 
L 370.425195 124.760653 
L 371.588417 123.366494 
L 372.540144 122.547387 
L 373.386124 122.102333 
L 374.126356 121.95705 
L 374.866588 122.040481 
L 375.659694 122.359804 
L 376.558547 122.975969 
L 377.616022 123.995564 
L 378.884991 125.553942 
L 380.576951 128.018894 
L 385.38846 135.258177 
L 386.657429 136.68443 
L 387.714904 137.560964 
L 388.613757 138.031971 
L 389.406863 138.205237 
L 390.147095 138.137144 
L 390.834454 137.855631 
L 391.574686 137.302077 
L 392.420665 136.373297 
L 393.425266 134.91668 
L 394.641362 132.736998 
L 396.227574 129.407505 
L 401.832189 117.216718 
L 403.048285 115.30365 
L 404.052885 114.125459 
L 404.898865 113.47197 
L 405.586224 113.200433 
L 406.273582 113.174223 
L 406.96094 113.374074 
L 407.754046 113.854215 
L 408.6529 114.677017 
L 409.763248 116.025142 
L 411.190839 118.14378 
L 416.425338 126.281754 
L 417.482812 127.36354 
L 418.381666 127.978685 
L 419.121898 128.234955 
L 419.809256 128.242439 
L 420.496615 128.016684 
L 421.236847 127.531652 
L 422.082826 126.701051 
L 423.087427 125.380746 
L 424.303523 123.381252 
L 425.836861 120.394135 
L 428.321926 114.978645 
L 431.018486 109.249216 
L 432.551824 106.50074 
L 433.715046 104.83344 
L 434.719647 103.758828 
L 435.671374 103.05372 
L 436.623101 102.623981 
L 437.574829 102.440759 
L 438.579429 102.482917 
L 439.636904 102.751997 
L 440.853 103.295792 
L 442.333464 104.212585 
L 444.554161 105.886881 
L 447.779458 108.297103 
L 449.471417 109.2823 
L 450.846134 109.836344 
L 452.06223 110.089123 
L 453.172578 110.087663 
L 454.177179 109.867421 
L 455.18178 109.414392 
L 456.186381 108.704607 
L 457.190981 107.714096 
L 458.248456 106.341827 
L 459.358804 104.507001 
L 460.5749 102.032938 
L 462.213985 98.148259 
L 467.078368 86.273743 
L 468.294464 84.012606 
L 469.299065 82.57645 
L 470.145045 81.736333 
L 470.832403 81.337208 
L 471.519761 81.189674 
L 472.20712 81.267711 
L 472.947352 81.573584 
L 473.846205 82.207612 
L 474.90368 83.246323 
L 476.331271 84.987238 
L 480.243926 89.933133 
L 481.354275 90.89344 
L 482.253128 91.392997 
L 483.151981 91.637716 
L 483.997961 91.642883 
L 484.896814 91.417253 
L 485.795668 90.961856 
L 486.800269 90.191463 
L 487.857743 89.095042 
L 489.020965 87.567092 
L 490.342808 85.444224 
L 491.770399 82.71967 
L 493.356611 79.206954 
L 495.365812 74.165683 
L 499.0141 64.967015 
L 500.494564 61.879626 
L 501.657786 59.951509 
L 502.609513 58.788102 
L 503.402619 58.152464 
L 504.089977 57.868874 
L 504.777336 57.815701 
L 505.517568 57.985331 
L 506.363548 58.425277 
L 507.368149 59.222282 
L 508.689992 60.590738 
L 513.131385 65.463618 
L 514.135986 66.12118 
L 515.087713 66.485151 
L 515.986566 66.596265 
L 516.885419 66.48031 
L 517.784273 66.136226 
L 518.736 65.522073 
L 519.740601 64.59366 
L 520.798075 63.303961 
L 521.961297 61.513167 
L 523.177393 59.221729 
L 524.499236 56.242186 
L 526.085448 52.074703 
L 532.165927 35.483591 
L 533.382022 33.094247 
L 534.386623 31.59367 
L 535.285477 30.626164 
L 536.131456 30.017396 
L 536.977436 29.680966 
L 537.770542 29.595178 
L 538.616521 29.729691 
L 539.515375 30.106415 
L 540.519976 30.783683 
L 541.630324 31.808078 
L 542.952167 33.343113 
L 543.163662 33.610787 
L 543.163662 33.610787 
" clip-path="url(#pa8d91c622d)" style="fill: none; stroke: #f7c6c7; stroke-linecap: square"/>
   </g>
   <g id="line2d_19">
    <path d="M 331.721626 146.461913 
L 337.326242 150.692933 
L 340.28717 152.648363 
L 342.719362 153.997559 
L 344.834311 154.926093 
L 346.737765 155.528751 
L 348.535472 155.865093 
L 350.280305 155.957596 
L 352.236633 155.829027 
L 354.668824 155.431292 
L 362.811378 153.904103 
L 364.767706 153.88308 
L 366.935529 154.094208 
L 369.79071 154.61514 
L 376.294179 155.880564 
L 378.462001 156.032759 
L 380.312582 155.949865 
L 382.004541 155.656107 
L 383.590753 155.155527 
L 385.229839 154.396885 
L 387.133293 153.259592 
L 389.459737 151.595589 
L 393.213771 148.590666 
L 397.02068 145.633018 
L 399.505745 143.992476 
L 401.726441 142.784128 
L 403.788517 141.908442 
L 405.691971 141.333013 
L 407.489678 141.013192 
L 409.234511 140.92664 
L 410.92647 141.067872 
L 412.565556 141.429363 
L 414.204641 142.022682 
L 416.901201 143.301514 
L 419.01615 144.19215 
L 420.390867 144.544631 
L 421.554089 144.623255 
L 422.611564 144.470677 
L 423.563291 144.115457 
L 424.515018 143.522452 
L 425.466745 142.661433 
L 426.471346 141.436243 
L 427.687442 139.567627 
L 429.22078 136.765453 
L 431.758719 131.572439 
L 434.349531 126.430006 
L 435.829996 123.956079 
L 436.993218 122.407962 
L 437.944945 121.471634 
L 438.790924 120.933291 
L 439.531156 120.718554 
L 440.218515 120.754898 
L 440.905873 121.018399 
L 441.698979 121.570422 
L 442.650706 122.525563 
L 443.866802 124.098604 
L 445.717383 126.923837 
L 448.255321 130.748691 
L 449.471417 132.193558 
L 450.423144 133.009589 
L 451.21625 133.419664 
L 451.903609 133.541005 
L 452.538093 133.434881 
L 453.225452 133.075607 
L 453.965684 132.427795 
L 454.864537 131.317903 
L 455.922012 129.624123 
L 457.190981 127.150327 
L 458.935814 123.215736 
L 463.747324 112.08324 
L 465.174914 109.487235 
L 466.549631 107.43585 
L 467.818601 105.928852 
L 468.981823 104.870343 
L 470.092171 104.145486 
L 471.149645 103.712228 
L 472.154246 103.531045 
L 473.158847 103.572574 
L 474.163448 103.835056 
L 475.220922 104.348118 
L 476.331271 105.145977 
L 477.60024 106.358475 
L 479.768063 108.811706 
L 481.777265 110.958668 
L 482.99336 111.941139 
L 483.945087 112.438268 
L 484.738193 112.620332 
L 485.478425 112.565431 
L 486.165784 112.293527 
L 486.853142 111.784528 
L 487.593375 110.952486 
L 488.492228 109.578355 
L 489.549702 107.528878 
L 490.871546 104.453115 
L 492.775 99.388419 
L 496.581908 89.145505 
L 498.009499 86.006084 
L 499.278468 83.74459 
L 500.44169 82.098512 
L 501.552039 80.895875 
L 502.609513 80.074695 
L 503.614114 79.578454 
L 504.565841 79.355726 
L 505.517568 79.366432 
L 506.469295 79.603426 
L 507.473896 80.091189 
L 508.531371 80.859171 
L 509.747466 82.039457 
L 511.862415 84.482728 
L 513.712996 86.482724 
L 514.823344 87.381794 
L 515.722197 87.844407 
L 516.46243 87.999402 
L 517.149788 87.927845 
L 517.837147 87.620148 
L 518.524505 87.048389 
L 519.264737 86.121481 
L 520.163591 84.611786 
L 521.273939 82.276298 
L 522.754403 78.595792 
L 527.513039 66.334134 
L 528.676261 64.140782 
L 529.892356 62.320805 
L 531.319947 60.591437 
L 535.232603 56.090464 
L 536.395825 54.254949 
L 537.453299 52.176599 
L 538.510774 49.601224 
L 539.72687 46.000944 
L 541.313081 40.548216 
L 543.163662 33.610787 
L 543.163662 33.610787 
" clip-path="url(#pa8d91c622d)" style="fill: none; stroke: #f7c6c7; stroke-linecap: square"/>
   </g>
   <g id="line2d_20">
    <path d="M 331.721626 146.461913 
L 334.523934 142.198283 
L 335.951525 140.416739 
L 337.061873 139.351711 
L 338.0136 138.72482 
L 338.912453 138.397959 
L 339.811307 138.308344 
L 340.763034 138.445039 
L 341.767635 138.816446 
L 342.930857 139.49403 
L 344.305574 140.568361 
L 346.10328 142.282491 
L 351.813643 147.962219 
L 353.294107 149.019382 
L 354.563077 149.657969 
L 355.673425 149.969379 
L 356.678026 150.020651 
L 357.682627 149.838488 
L 358.792975 149.395872 
L 360.061944 148.633435 
L 361.595282 147.435234 
L 363.815979 145.38241 
L 368.045877 141.447184 
L 369.79071 140.145278 
L 371.218301 139.34614 
L 372.434397 138.907477 
L 373.544745 138.738042 
L 374.602219 138.80559 
L 375.765441 139.115193 
L 377.087285 139.706105 
L 378.779244 140.723346 
L 384.648228 144.485358 
L 386.022944 144.984502 
L 387.23904 145.197955 
L 388.349388 145.171102 
L 389.406863 144.920561 
L 390.411464 144.455379 
L 391.416065 143.747485 
L 392.579287 142.637425 
L 393.954004 141.004659 
L 395.804584 138.434444 
L 401.197704 130.717537 
L 402.678169 129.091694 
L 403.894264 128.077228 
L 404.898865 127.508119 
L 405.797718 127.237431 
L 406.696572 127.199193 
L 407.648299 127.385977 
L 408.705773 127.831104 
L 409.921869 128.59938 
L 411.402334 129.816123 
L 413.570156 131.927589 
L 416.425338 134.676629 
L 417.747181 135.634041 
L 418.804655 136.136676 
L 419.703509 136.327549 
L 420.549488 136.279361 
L 421.395468 136.011987 
L 422.294321 135.496448 
L 423.298922 134.649323 
L 424.40927 133.395467 
L 425.625366 131.659808 
L 427.000083 129.287929 
L 428.956411 125.425652 
L 432.816193 117.741246 
L 434.243784 115.423707 
L 435.459879 113.856746 
L 436.570228 112.782448 
L 437.574829 112.118747 
L 438.473682 111.784185 
L 439.319662 111.701671 
L 440.165641 111.852299 
L 441.064495 112.260271 
L 442.069095 112.970117 
L 443.338065 114.158552 
L 445.188645 116.238166 
L 448.202448 119.623481 
L 449.524291 120.777592 
L 450.581765 121.431519 
L 451.480619 121.74635 
L 452.273725 121.806463 
L 453.066831 121.639199 
L 453.91281 121.21471 
L 454.811664 120.501032 
L 455.816264 119.403836 
L 456.926613 117.851124 
L 458.195582 115.679634 
L 459.676047 112.673346 
L 461.738122 107.9015 
L 464.857672 100.717299 
L 466.496757 97.511853 
L 467.818601 95.382642 
L 468.928949 93.982955 
L 469.880676 93.110699 
L 470.726656 92.618593 
L 471.519761 92.404564 
L 472.312867 92.410444 
L 473.158847 92.635657 
L 474.110574 93.128348 
L 475.168049 93.930811 
L 476.437018 95.180837 
L 478.340472 97.420954 
L 480.666916 100.081897 
L 481.883012 101.137631 
L 482.887613 101.730675 
L 483.786466 102.018361 
L 484.632446 102.058777 
L 485.425552 101.87693 
L 486.218658 101.466785 
L 487.064637 100.760466 
L 487.963491 99.700885 
L 489.020965 98.086811 
L 490.237061 95.809348 
L 491.717525 92.54792 
L 493.673853 87.664163 
L 497.903751 76.916615 
L 499.384216 73.859176 
L 500.653185 71.714881 
L 501.763533 70.254556 
L 502.715261 69.34723 
L 503.56124 68.831489 
L 504.354346 68.603709 
L 505.147452 68.604043 
L 505.993432 68.830271 
L 506.945159 69.329878 
L 508.002633 70.143389 
L 509.324476 71.462091 
L 513.871617 76.302303 
L 514.876218 76.921221 
L 515.775071 77.226627 
L 516.568177 77.274937 
L 517.361283 77.093125 
L 518.101515 76.696567 
L 518.894621 76.009225 
L 519.793474 74.908376 
L 520.850949 73.225007 
L 522.067045 70.848638 
L 523.600383 67.324145 
L 525.821079 61.572528 
L 528.411892 54.992018 
L 530.103851 51.322746 
L 531.742937 48.283731 
L 533.329149 45.807776 
L 534.862487 43.818006 
L 537.611921 40.709909 
L 539.621122 38.251448 
L 543.163662 33.610787 
L 543.163662 33.610787 
" clip-path="url(#pa8d91c622d)" style="fill: none; stroke-dasharray: 5.55,2.4; stroke-dashoffset: 0; stroke: #d8696b; stroke-width: 1.5"/>
   </g>
   <g id="text_19">
    <!-- Upper envelope -->
    <g transform="translate(362.008467 94.446934) scale(0.12 -0.12)">
     <defs>
      <path id="DejaVuSans-55" d="M 556 4666 
L 1191 4666 
L 1191 1831 
Q 1191 1081 1462 751 
Q 1734 422 2344 422 
Q 2950 422 3222 751 
Q 3494 1081 3494 1831 
L 3494 4666 
L 4128 4666 
L 4128 1753 
Q 4128 841 3676 375 
Q 3225 -91 2344 -91 
Q 1459 -91 1007 375 
Q 556 841 556 1753 
L 556 4666 
z
" transform="scale(0.015625)"/>
      <path id="DejaVuSans-70" d="M 1159 525 
L 1159 -1331 
L 581 -1331 
L 581 3500 
L 1159 3500 
L 1159 2969 
Q 1341 3281 1617 3432 
Q 1894 3584 2278 3584 
Q 2916 3584 3314 3078 
Q 3713 2572 3713 1747 
Q 3713 922 3314 415 
Q 2916 -91 2278 -91 
Q 1894 -91 1617 61 
Q 1341 213 1159 525 
z
M 3116 1747 
Q 3116 2381 2855 2742 
Q 2594 3103 2138 3103 
Q 1681 3103 1420 2742 
Q 1159 2381 1159 1747 
Q 1159 1113 1420 752 
Q 1681 391 2138 391 
Q 2594 391 2855 752 
Q 3116 1113 3116 1747 
z
" transform="scale(0.015625)"/>
      <path id="DejaVuSans-76" d="M 191 3500 
L 800 3500 
L 1894 563 
L 2988 3500 
L 3597 3500 
L 2284 0 
L 1503 0 
L 191 3500 
z
" transform="scale(0.015625)"/>
      <path id="DejaVuSans-6f" d="M 1959 3097 
Q 1497 3097 1228 2736 
Q 959 2375 959 1747 
Q 959 1119 1226 758 
Q 1494 397 1959 397 
Q 2419 397 2687 759 
Q 2956 1122 2956 1747 
Q 2956 2369 2687 2733 
Q 2419 3097 1959 3097 
z
M 1959 3584 
Q 2709 3584 3137 3096 
Q 3566 2609 3566 1747 
Q 3566 888 3137 398 
Q 2709 -91 1959 -91 
Q 1206 -91 779 398 
Q 353 888 353 1747 
Q 353 2609 779 3096 
Q 1206 3584 1959 3584 
z
" transform="scale(0.015625)"/>
     </defs>
     <use xlink:href="#DejaVuSans-55"/>
     <use xlink:href="#DejaVuSans-70" transform="translate(73.193359 0)"/>
     <use xlink:href="#DejaVuSans-70" transform="translate(136.669922 0)"/>
     <use xlink:href="#DejaVuSans-65" transform="translate(200.146484 0)"/>
     <use xlink:href="#DejaVuSans-72" transform="translate(261.669922 0)"/>
     <use xlink:href="#DejaVuSans-20" transform="translate(302.783203 0)"/>
     <use xlink:href="#DejaVuSans-65" transform="translate(334.570312 0)"/>
     <use xlink:href="#DejaVuSans-6e" transform="translate(396.09375 0)"/>
     <use xlink:href="#DejaVuSans-76" transform="translate(459.472656 0)"/>
     <use xlink:href="#DejaVuSans-65" transform="translate(518.652344 0)"/>
     <use xlink:href="#DejaVuSans-6c" transform="translate(580.175781 0)"/>
     <use xlink:href="#DejaVuSans-6f" transform="translate(607.958984 0)"/>
     <use xlink:href="#DejaVuSans-70" transform="translate(669.140625 0)"/>
     <use xlink:href="#DejaVuSans-65" transform="translate(732.617188 0)"/>
    </g>
   </g>
   <g id="text_20">
    <!-- Lower envelope -->
    <g transform="translate(462.964602 148.542512) scale(0.12 -0.12)">
     <defs>
      <path id="DejaVuSans-4c" d="M 628 4666 
L 1259 4666 
L 1259 531 
L 3531 531 
L 3531 0 
L 628 0 
L 628 4666 
z
" transform="scale(0.015625)"/>
      <path id="DejaVuSans-77" d="M 269 3500 
L 844 3500 
L 1563 769 
L 2278 3500 
L 2956 3500 
L 3675 769 
L 4391 3500 
L 4966 3500 
L 4050 0 
L 3372 0 
L 2619 2869 
L 1863 0 
L 1184 0 
L 269 3500 
z
" transform="scale(0.015625)"/>
     </defs>
     <use xlink:href="#DejaVuSans-4c"/>
     <use xlink:href="#DejaVuSans-6f" transform="translate(53.962891 0)"/>
     <use xlink:href="#DejaVuSans-77" transform="translate(115.144531 0)"/>
     <use xlink:href="#DejaVuSans-65" transform="translate(196.931641 0)"/>
     <use xlink:href="#DejaVuSans-72" transform="translate(258.455078 0)"/>
     <use xlink:href="#DejaVuSans-20" transform="translate(299.568359 0)"/>
     <use xlink:href="#DejaVuSans-65" transform="translate(331.355469 0)"/>
     <use xlink:href="#DejaVuSans-6e" transform="translate(392.878906 0)"/>
     <use xlink:href="#DejaVuSans-76" transform="translate(456.257812 0)"/>
     <use xlink:href="#DejaVuSans-65" transform="translate(515.4375 0)"/>
     <use xlink:href="#DejaVuSans-6c" transform="translate(576.960938 0)"/>
     <use xlink:href="#DejaVuSans-6f" transform="translate(604.744141 0)"/>
     <use xlink:href="#DejaVuSans-70" transform="translate(665.925781 0)"/>
     <use xlink:href="#DejaVuSans-65" transform="translate(729.402344 0)"/>
    </g>
   </g>
   <g id="text_21">
    <!-- Mean value -->
    <g transform="translate(446.13858 47.633453) scale(0.12 -0.12)">
     <defs>
      <path id="DejaVuSans-4d" d="M 628 4666 
L 1569 4666 
L 2759 1491 
L 3956 4666 
L 4897 4666 
L 4897 0 
L 4281 0 
L 4281 4097 
L 3078 897 
L 2444 897 
L 1241 4097 
L 1241 0 
L 628 0 
L 628 4666 
z
" transform="scale(0.015625)"/>
      <path id="DejaVuSans-75" d="M 544 1381 
L 544 3500 
L 1119 3500 
L 1119 1403 
Q 1119 906 1312 657 
Q 1506 409 1894 409 
Q 2359 409 2629 706 
Q 2900 1003 2900 1516 
L 2900 3500 
L 3475 3500 
L 3475 0 
L 2900 0 
L 2900 538 
Q 2691 219 2414 64 
Q 2138 -91 1772 -91 
Q 1169 -91 856 284 
Q 544 659 544 1381 
z
M 1991 3584 
L 1991 3584 
z
" transform="scale(0.015625)"/>
     </defs>
     <use xlink:href="#DejaVuSans-4d"/>
     <use xlink:href="#DejaVuSans-65" transform="translate(86.279297 0)"/>
     <use xlink:href="#DejaVuSans-61" transform="translate(147.802734 0)"/>
     <use xlink:href="#DejaVuSans-6e" transform="translate(209.082031 0)"/>
     <use xlink:href="#DejaVuSans-20" transform="translate(272.460938 0)"/>
     <use xlink:href="#DejaVuSans-76" transform="translate(304.248047 0)"/>
     <use xlink:href="#DejaVuSans-61" transform="translate(363.427734 0)"/>
     <use xlink:href="#DejaVuSans-6c" transform="translate(424.707031 0)"/>
     <use xlink:href="#DejaVuSans-75" transform="translate(452.490234 0)"/>
     <use xlink:href="#DejaVuSans-65" transform="translate(515.869141 0)"/>
    </g>
   </g>
   <g id="patch_8">
    <path d="M 318.494601 162.356325 
Q 437.439905 162.356325 555.267175 162.356325 
" style="fill: none; stroke: #000000; stroke-linecap: round"/>
    <path d="M 551.267175 160.356325 
L 555.267175 162.356325 
L 551.267175 164.356325 
" style="fill: none; stroke: #000000; stroke-linecap: round"/>
   </g>
   <g id="patch_9">
    <path d="M 321.149525 163.138333 
Q 321.149525 92.813563 321.149525 23.606826 
" style="fill: none; stroke: #000000; stroke-linecap: round"/>
    <path d="M 319.149525 27.606826 
L 321.149525 23.606826 
L 323.149525 27.606826 
" style="fill: none; stroke: #000000; stroke-linecap: round"/>
   </g>
   <g id="text_22">
    <!-- (b) -->
    <g transform="translate(293.239176 16.318125) scale(0.12 -0.12)">
     <defs>
      <path id="DejaVuSans-62" d="M 3116 1747 
Q 3116 2381 2855 2742 
Q 2594 3103 2138 3103 
Q 1681 3103 1420 2742 
Q 1159 2381 1159 1747 
Q 1159 1113 1420 752 
Q 1681 391 2138 391 
Q 2594 391 2855 752 
Q 3116 1113 3116 1747 
z
M 1159 2969 
Q 1341 3281 1617 3432 
Q 1894 3584 2278 3584 
Q 2916 3584 3314 3078 
Q 3713 2572 3713 1747 
Q 3713 922 3314 415 
Q 2916 -91 2278 -91 
Q 1894 -91 1617 61 
Q 1341 213 1159 525 
L 1159 0 
L 581 0 
L 581 4863 
L 1159 4863 
L 1159 2969 
z
" transform="scale(0.015625)"/>
     </defs>
     <use xlink:href="#DejaVuSans-28"/>
     <use xlink:href="#DejaVuSans-62" transform="translate(39.013672 0)"/>
     <use xlink:href="#DejaVuSans-29" transform="translate(102.490234 0)"/>
    </g>
   </g>
   <g id="patch_10">
    <path d="M 481.079689 51.241611 
Q 489.885854 61.677042 497.610447 70.830794 
" clip-path="url(#pa8d91c622d)" style="fill: none; stroke: #d8696b; stroke-width: 1.5; stroke-linecap: round"/>
    <path d="M 495.718269 63.006494 
L 497.610447 70.830794 
L 490.2157 67.649956 
" clip-path="url(#pa8d91c622d)" style="fill: none; stroke: #d8696b; stroke-width: 1.5; stroke-linecap: round"/>
   </g>
   <g id="PathCollection_1">
    <defs>
     <path id="m5b49aa7415" d="M 0 1.936492 
C 0.513564 1.936492 1.006162 1.732451 1.369306 1.369306 
C 1.732451 1.006162 1.936492 0.513564 1.936492 0 
C 1.936492 -0.513564 1.732451 -1.006162 1.369306 -1.369306 
C 1.006162 -1.732451 0.513564 -1.936492 0 -1.936492 
C -0.513564 -1.936492 -1.006162 -1.732451 -1.369306 -1.369306 
C -1.732451 -1.006162 -1.936492 -0.513564 -1.936492 0 
C -1.936492 0.513564 -1.732451 1.006162 -1.369306 1.369306 
C -1.006162 1.732451 -0.513564 1.936492 0 1.936492 
z
" style="stroke: #000000; stroke-opacity: 0.75"/>
    </defs>
    <g clip-path="url(#pa8d91c622d)">
     <use xlink:href="#m5b49aa7415" x="331.721626" y="146.461913" style="fill-opacity: 0.75; stroke: #000000; stroke-opacity: 0.75"/>
     <use xlink:href="#m5b49aa7415" x="337.749231" y="126.750124" style="fill-opacity: 0.75; stroke: #000000; stroke-opacity: 0.75"/>
     <use xlink:href="#m5b49aa7415" x="356.572278" y="145.033758" style="fill-opacity: 0.75; stroke: #000000; stroke-opacity: 0.75"/>
     <use xlink:href="#m5b49aa7415" x="373.75624" y="122.000074" style="fill-opacity: 0.75; stroke: #000000; stroke-opacity: 0.75"/>
     <use xlink:href="#m5b49aa7415" x="390.940201" y="137.792507" style="fill-opacity: 0.75; stroke: #000000; stroke-opacity: 0.75"/>
     <use xlink:href="#m5b49aa7415" x="405.480476" y="113.226059" style="fill-opacity: 0.75; stroke: #000000; stroke-opacity: 0.75"/>
     <use xlink:href="#m5b49aa7415" x="419.650635" y="128.261661" style="fill-opacity: 0.75; stroke: #000000; stroke-opacity: 0.75"/>
     <use xlink:href="#m5b49aa7415" x="433.979415" y="104.516093" style="fill-opacity: 0.75; stroke: #000000; stroke-opacity: 0.75"/>
     <use xlink:href="#m5b49aa7415" x="445.558761" y="106.677164" style="fill-opacity: 0.75; stroke: #000000; stroke-opacity: 0.75"/>
     <use xlink:href="#m5b49aa7415" x="459.30593" y="104.603988" style="fill-opacity: 0.75; stroke: #000000; stroke-opacity: 0.75"/>
     <use xlink:href="#m5b49aa7415" x="470.409413" y="81.55161" style="fill-opacity: 0.75; stroke: #000000; stroke-opacity: 0.75"/>
     <use xlink:href="#m5b49aa7415" x="481.354275" y="90.89344" style="fill-opacity: 0.75; stroke: #000000; stroke-opacity: 0.75"/>
     <use xlink:href="#m5b49aa7415" x="493.462358" y="78.955696" style="fill-opacity: 0.75; stroke: #000000; stroke-opacity: 0.75"/>
     <use xlink:href="#m5b49aa7415" x="503.402619" y="58.152464" style="fill-opacity: 0.75; stroke: #000000; stroke-opacity: 0.75"/>
     <use xlink:href="#m5b49aa7415" x="513.34288" y="65.625222" style="fill-opacity: 0.75; stroke: #000000; stroke-opacity: 0.75"/>
     <use xlink:href="#m5b49aa7415" x="524.234868" y="56.878807" style="fill-opacity: 0.75; stroke: #000000; stroke-opacity: 0.75"/>
     <use xlink:href="#m5b49aa7415" x="533.699265" y="32.571016" style="fill-opacity: 0.75; stroke: #000000; stroke-opacity: 0.75"/>
     <use xlink:href="#m5b49aa7415" x="542.634925" y="32.948116" style="fill-opacity: 0.75; stroke: #000000; stroke-opacity: 0.75"/>
     <use xlink:href="#m5b49aa7415" x="543.163662" y="33.610787" style="fill-opacity: 0.75; stroke: #000000; stroke-opacity: 0.75"/>
    </g>
   </g>
   <g id="PathCollection_2">
    <g clip-path="url(#pa8d91c622d)">
     <use xlink:href="#m5b49aa7415" x="331.721626" y="146.461913" style="fill-opacity: 0.75; stroke: #000000; stroke-opacity: 0.75"/>
     <use xlink:href="#m5b49aa7415" x="348.746967" y="155.888498" style="fill-opacity: 0.75; stroke: #000000; stroke-opacity: 0.75"/>
     <use xlink:href="#m5b49aa7415" x="363.604484" y="153.867929" style="fill-opacity: 0.75; stroke: #000000; stroke-opacity: 0.75"/>
     <use xlink:href="#m5b49aa7415" x="383.273511" y="155.274622" style="fill-opacity: 0.75; stroke: #000000; stroke-opacity: 0.75"/>
     <use xlink:href="#m5b49aa7415" x="396.59769" y="145.939571" style="fill-opacity: 0.75; stroke: #000000; stroke-opacity: 0.75"/>
     <use xlink:href="#m5b49aa7415" x="413.517283" y="141.745778" style="fill-opacity: 0.75; stroke: #000000; stroke-opacity: 0.75"/>
     <use xlink:href="#m5b49aa7415" x="425.67824" y="142.430657" style="fill-opacity: 0.75; stroke: #000000; stroke-opacity: 0.75"/>
     <use xlink:href="#m5b49aa7415" x="439.954146" y="120.712997" style="fill-opacity: 0.75; stroke: #000000; stroke-opacity: 0.75"/>
     <use xlink:href="#m5b49aa7415" x="452.326598" y="133.494811" style="fill-opacity: 0.75; stroke: #000000; stroke-opacity: 0.75"/>
     <use xlink:href="#m5b49aa7415" x="463.535829" y="112.508492" style="fill-opacity: 0.75; stroke: #000000; stroke-opacity: 0.75"/>
     <use xlink:href="#m5b49aa7415" x="476.384144" y="105.190552" style="fill-opacity: 0.75; stroke: #000000; stroke-opacity: 0.75"/>
     <use xlink:href="#m5b49aa7415" x="486.906016" y="111.734873" style="fill-opacity: 0.75; stroke: #000000; stroke-opacity: 0.75"/>
     <use xlink:href="#m5b49aa7415" x="497.32214" y="87.439785" style="fill-opacity: 0.75; stroke: #000000; stroke-opacity: 0.75"/>
     <use xlink:href="#m5b49aa7415" x="508.742865" y="81.043254" style="fill-opacity: 0.75; stroke: #000000; stroke-opacity: 0.75"/>
     <use xlink:href="#m5b49aa7415" x="518.471631" y="87.102376" style="fill-opacity: 0.75; stroke: #000000; stroke-opacity: 0.75"/>
     <use xlink:href="#m5b49aa7415" x="527.830281" y="65.684588" style="fill-opacity: 0.75; stroke: #000000; stroke-opacity: 0.75"/>
     <use xlink:href="#m5b49aa7415" x="538.193532" y="50.431629" style="fill-opacity: 0.75; stroke: #000000; stroke-opacity: 0.75"/>
     <use xlink:href="#m5b49aa7415" x="543.163662" y="33.610787" style="fill-opacity: 0.75; stroke: #000000; stroke-opacity: 0.75"/>
    </g>
   </g>
  </g>
  <g id="axes_3">
   <g id="patch_11">
    <path d="M 607.188701 162.356325 
L 839.77494 162.356325 
L 839.77494 23.272325 
L 607.188701 23.272325 
z
" style="fill: #ffffff"/>
   </g>
   <g id="matplotlib.axis_5">
    <g id="xtick_9">
     <g id="line2d_21">
      <g>
       <use xlink:href="#m47501c3ba2" x="617.760803" y="162.356325" style="stroke: #000000; stroke-width: 0.8"/>
      </g>
     </g>
     <g id="text_23">
      <!-- 0 -->
      <g transform="translate(613.943303 178.47445) scale(0.12 -0.12)">
       <use xlink:href="#DejaVuSans-30"/>
      </g>
     </g>
    </g>
    <g id="xtick_10">
     <g id="line2d_22">
      <g>
       <use xlink:href="#m47501c3ba2" x="685.064893" y="162.356325" style="stroke: #000000; stroke-width: 0.8"/>
      </g>
     </g>
     <g id="text_24">
      <!-- 1 -->
      <g transform="translate(681.247393 178.47445) scale(0.12 -0.12)">
       <use xlink:href="#DejaVuSans-31"/>
      </g>
     </g>
    </g>
    <g id="xtick_11">
     <g id="line2d_23">
      <g>
       <use xlink:href="#m47501c3ba2" x="752.368983" y="162.356325" style="stroke: #000000; stroke-width: 0.8"/>
      </g>
     </g>
     <g id="text_25">
      <!-- 2 -->
      <g transform="translate(748.551483 178.47445) scale(0.12 -0.12)">
       <use xlink:href="#DejaVuSans-32"/>
      </g>
     </g>
    </g>
    <g id="xtick_12">
     <g id="line2d_24">
      <g>
       <use xlink:href="#m47501c3ba2" x="819.673073" y="162.356325" style="stroke: #000000; stroke-width: 0.8"/>
      </g>
     </g>
     <g id="text_26">
      <!-- 3 -->
      <g transform="translate(815.855573 178.47445) scale(0.12 -0.12)">
       <use xlink:href="#DejaVuSans-33"/>
      </g>
     </g>
    </g>
    <g id="text_27">
     <!-- Time (s) -->
     <g transform="translate(699.087133 194.0882) scale(0.12 -0.12)">
      <use xlink:href="#DejaVuSans-54"/>
      <use xlink:href="#DejaVuSans-69" transform="translate(57.958984 0)"/>
      <use xlink:href="#DejaVuSans-6d" transform="translate(85.742188 0)"/>
      <use xlink:href="#DejaVuSans-65" transform="translate(183.154297 0)"/>
      <use xlink:href="#DejaVuSans-20" transform="translate(244.677734 0)"/>
      <use xlink:href="#DejaVuSans-28" transform="translate(276.464844 0)"/>
      <use xlink:href="#DejaVuSans-73" transform="translate(315.478516 0)"/>
      <use xlink:href="#DejaVuSans-29" transform="translate(367.578125 0)"/>
     </g>
    </g>
   </g>
   <g id="matplotlib.axis_6">
    <g id="ytick_7">
     <g id="line2d_25">
      <g>
       <use xlink:href="#me7f3e652cc" x="607.188701" y="127.585325" style="stroke: #000000; stroke-width: 0.8"/>
      </g>
     </g>
     <g id="text_28">
      <!-- -1 -->
      <g transform="translate(588.224326 132.144387) scale(0.12 -0.12)">
       <defs>
        <path id="DejaVuSans-2d" d="M 313 2009 
L 1997 2009 
L 1997 1497 
L 313 1497 
L 313 2009 
z
" transform="scale(0.015625)"/>
       </defs>
       <use xlink:href="#DejaVuSans-2d"/>
       <use xlink:href="#DejaVuSans-31" transform="translate(36.083984 0)"/>
      </g>
     </g>
    </g>
    <g id="ytick_8">
     <g id="line2d_26">
      <g>
       <use xlink:href="#me7f3e652cc" x="607.188701" y="92.814325" style="stroke: #000000; stroke-width: 0.8"/>
      </g>
     </g>
     <g id="text_29">
      <!-- 0 -->
      <g transform="translate(592.553701 97.373387) scale(0.12 -0.12)">
       <use xlink:href="#DejaVuSans-30"/>
      </g>
     </g>
    </g>
    <g id="ytick_9">
     <g id="line2d_27">
      <g>
       <use xlink:href="#me7f3e652cc" x="607.188701" y="58.043325" style="stroke: #000000; stroke-width: 0.8"/>
      </g>
     </g>
     <g id="text_30">
      <!-- 1 -->
      <g transform="translate(592.553701 62.602388) scale(0.12 -0.12)">
       <use xlink:href="#DejaVuSans-31"/>
      </g>
     </g>
    </g>
   </g>
   <g id="line2d_28">
    <path d="M 617.760803 122.004342 
L 620.457363 86.488282 
L 621.461963 76.281663 
L 622.255069 70.249656 
L 622.889554 66.894098 
L 623.418291 65.149345 
L 623.841281 64.448616 
L 624.158524 64.324268 
L 624.422892 64.4803 
L 624.740135 64.974632 
L 625.163124 66.140599 
L 625.691862 68.370067 
L 626.326346 72.070425 
L 627.172326 78.44109 
L 628.441295 89.962389 
L 630.503371 108.690465 
L 631.402224 114.897963 
L 632.089583 118.261427 
L 632.61832 119.892015 
L 633.04131 120.551615 
L 633.358552 120.658024 
L 633.622921 120.48988 
L 633.940163 119.98079 
L 634.363153 118.788856 
L 634.89189 116.506694 
L 635.526375 112.699251 
L 636.372355 106.094353 
L 637.58845 94.570446 
L 639.756273 73.949095 
L 640.602253 67.993408 
L 641.236737 64.890218 
L 641.712601 63.46434 
L 642.082717 62.934448 
L 642.347086 62.879049 
L 642.611454 63.098012 
L 642.928697 63.722654 
L 643.351687 65.156459 
L 643.880424 67.868854 
L 644.514909 72.351159 
L 645.360888 80.049631 
L 646.682731 94.50806 
L 648.533312 114.411769 
L 649.379291 121.274926 
L 650.013776 124.883204 
L 650.48964 126.57481 
L 650.859756 127.243178 
L 651.124124 127.362104 
L 651.335619 127.239301 
L 651.599988 126.812573 
L 651.970104 125.708494 
L 652.445968 123.441561 
L 653.027579 119.451541 
L 653.767811 112.667165 
L 654.772412 101.16547 
L 657.73334 65.705902 
L 658.473573 59.832231 
L 659.055184 56.755388 
L 659.478173 55.459373 
L 659.795416 55.029554 
L 660.006911 55.004442 
L 660.218406 55.190361 
L 660.535648 55.867156 
L 660.905764 57.256889 
L 661.381628 59.967448 
L 662.016112 65.086541 
L 662.809218 73.542755 
L 663.97244 88.685364 
L 665.981642 114.976552 
L 666.827621 123.12713 
L 667.462106 127.265648 
L 667.93797 129.082208 
L 668.255212 129.642079 
L 668.466707 129.719735 
L 668.678202 129.559875 
L 668.942571 129.027367 
L 669.312687 127.670422 
L 669.78855 124.91757 
L 670.370161 120.135617 
L 671.163267 111.515271 
L 672.379363 95.355659 
L 674.124196 72.507186 
L 674.917302 64.83151 
L 675.498913 60.992879 
L 675.974776 59.165109 
L 676.292019 58.648992 
L 676.503514 58.625987 
L 676.715008 58.861875 
L 676.979377 59.518703 
L 677.349493 61.09933 
L 677.825357 64.201627 
L 678.459841 69.999364 
L 679.305821 80.018457 
L 682.372497 118.718212 
L 683.006982 123.302649 
L 683.482846 125.344363 
L 683.800088 125.987753 
L 684.011583 126.088549 
L 684.223078 125.925009 
L 684.487446 125.350443 
L 684.857562 123.867657 
L 685.333426 120.851074 
L 685.915037 115.63118 
L 686.708143 106.332431 
L 688.241481 84.934971 
L 689.404703 70.180833 
L 690.144935 63.338077 
L 690.673672 60.151099 
L 691.096662 58.754181 
L 691.361031 58.425112 
L 691.572526 58.466754 
L 691.784021 58.78005 
L 692.101263 59.758606 
L 692.524253 61.994298 
L 693.05299 66.199071 
L 693.740349 73.699436 
L 694.744949 87.554498 
L 696.807025 116.538809 
L 697.547257 123.623387 
L 698.075994 126.802219 
L 698.44611 127.972032 
L 698.710479 128.249719 
L 698.8691 128.189814 
L 699.080595 127.845064 
L 699.397837 126.764628 
L 699.820827 124.301871 
L 700.349565 119.697484 
L 701.036923 111.563986 
L 702.094398 95.95781 
L 703.839231 70.323887 
L 704.579463 62.696954 
L 705.1082 59.247204 
L 705.478316 57.966736 
L 705.742685 57.655885 
L 705.901306 57.715177 
L 706.112801 58.080272 
L 706.430043 59.23148 
L 706.853033 61.849514 
L 707.38177 66.715939 
L 708.122002 75.973345 
L 709.338098 94.694733 
L 710.659941 114.131113 
L 711.400174 122.008748 
L 711.928911 125.60678 
L 712.299027 126.973079 
L 712.563396 127.335212 
L 712.722017 127.302535 
L 712.933512 126.966587 
L 713.19788 126.080561 
L 713.567996 123.99317 
L 714.04386 119.948591 
L 714.678345 112.499888 
L 715.630072 98.289947 
L 717.480652 70.183571 
L 718.168011 63.028432 
L 718.696748 59.62726 
L 719.066864 58.476674 
L 719.278359 58.294035 
L 719.43698 58.385991 
L 719.648475 58.813215 
L 719.965717 60.097875 
L 720.388707 62.965926 
L 720.917444 68.249886 
L 721.657677 78.221905 
L 723.085267 101.497327 
L 724.142742 116.907804 
L 724.777227 123.426382 
L 725.25309 126.453406 
L 725.623206 127.566993 
L 725.834701 127.693474 
L 725.993322 127.541634 
L 726.204817 127.010686 
L 726.52206 125.523282 
L 726.945049 122.311071 
L 727.52666 115.848011 
L 728.319766 104.121562 
L 730.751958 66.009167 
L 731.333569 60.713578 
L 731.756559 58.514706 
L 732.073801 57.856294 
L 732.232422 57.85385 
L 732.443917 58.190622 
L 732.708286 59.152893 
L 733.078402 61.479857 
L 733.554265 66.031197 
L 734.18875 74.40294 
L 735.193351 91.052934 
L 736.673815 115.146334 
L 737.361174 122.889558 
L 737.837037 126.180497 
L 738.207153 127.415041 
L 738.418648 127.578778 
L 738.577269 127.44069 
L 738.788764 126.908985 
L 739.106007 125.377044 
L 739.528996 122.02316 
L 740.110607 115.229625 
L 740.903713 102.907261 
L 743.12441 66.761339 
L 743.706021 61.172098 
L 744.129011 58.892013 
L 744.393379 58.29793 
L 744.552001 58.256922 
L 744.710622 58.453878 
L 744.97499 59.308146 
L 745.345106 61.582053 
L 745.82097 66.228381 
L 746.455455 74.954008 
L 747.460056 92.390747 
L 748.834772 115.527564 
L 749.469257 122.885251 
L 749.945121 126.211841 
L 750.262363 127.251874 
L 750.473858 127.40007 
L 750.632479 127.222518 
L 750.843974 126.602851 
L 751.161216 124.86973 
L 751.584206 121.139668 
L 752.165817 113.697103 
L 753.011797 99.496272 
L 754.809504 68.610459 
L 755.443988 61.659784 
L 755.866978 58.987703 
L 756.184221 58.124948 
L 756.342842 58.071586 
L 756.501463 58.271325 
L 756.765832 59.163056 
L 757.083074 61.135232 
L 757.506064 65.204883 
L 758.087675 73.123941 
L 758.986528 88.916774 
L 760.519866 115.973307 
L 761.154351 123.49061 
L 761.630214 126.747659 
L 761.947457 127.640419 
L 762.106078 127.688299 
L 762.264699 127.468518 
L 762.529068 126.511129 
L 762.899184 123.965642 
L 763.375048 118.790468 
L 764.009532 109.157794 
L 765.172754 87.25329 
L 766.230229 69.011783 
L 766.864714 61.626715 
L 767.287703 58.833008 
L 767.604946 57.987877 
L 767.763567 57.98021 
L 767.922188 58.250087 
L 768.186557 59.310128 
L 768.556673 62.031909 
L 769.032536 67.470502 
L 769.719895 78.404128 
L 772.257834 122.253194 
L 772.733697 126.095069 
L 773.05094 127.323587 
L 773.262435 127.521745 
L 773.421056 127.340151 
L 773.632551 126.659089 
L 773.949793 124.716475 
L 774.372783 120.508003 
L 774.954394 112.131139 
L 775.853247 95.35724 
L 777.227964 69.93719 
L 777.862449 62.113925 
L 778.285439 59.138192 
L 778.602681 58.230743 
L 778.761302 58.218005 
L 778.919923 58.500984 
L 779.184292 59.623623 
L 779.554408 62.51594 
L 780.030272 68.295517 
L 780.71763 79.856997 
L 782.9912 121.168067 
L 783.467064 125.627147 
L 783.83718 127.323372 
L 784.048675 127.554686 
L 784.207296 127.371099 
L 784.418791 126.652815 
L 784.736033 124.585473 
L 785.159023 120.101301 
L 785.740634 111.209616 
L 786.692361 92.522256 
L 787.908457 69.513708 
L 788.490068 62.085383 
L 788.913058 58.944163 
L 789.2303 57.99006 
L 789.388921 57.979165 
L 789.547543 58.280138 
L 789.811911 59.467848 
L 790.182027 62.520738 
L 790.657891 68.605264 
L 791.345249 80.715893 
L 793.460198 120.568533 
L 793.936062 125.375611 
L 794.306178 127.25631 
L 794.517673 127.55122 
L 794.676294 127.393708 
L 794.887789 126.680341 
L 795.205031 124.557378 
L 795.628021 119.893684 
L 796.209632 110.614503 
L 797.214233 90.119631 
L 798.324581 68.929281 
L 798.906192 61.676495 
L 799.329182 58.873271 
L 799.593551 58.294636 
L 799.699298 58.322807 
L 799.857919 58.643561 
L 800.122288 59.911861 
L 800.492404 63.165339 
L 800.968268 69.618288 
L 801.655626 82.339006 
L 803.55908 119.547838 
L 804.087818 125.294918 
L 804.457934 127.252512 
L 804.669429 127.549817 
L 804.82805 127.373472 
L 805.039545 126.607302 
L 805.356787 124.347158 
L 805.779777 119.402279 
L 806.361388 109.606336 
L 807.418862 87.05008 
L 808.423463 67.576358 
L 808.9522 60.86416 
L 809.322317 58.232007 
L 809.586685 57.5036 
L 809.745306 57.541565 
L 809.903928 57.936997 
L 810.168296 59.379772 
L 810.538412 62.973379 
L 811.014276 69.985965 
L 811.754508 84.754559 
L 813.393594 118.622699 
L 813.922331 125.197822 
L 814.292447 127.641772 
L 814.556816 128.199915 
L 814.662563 128.140225 
L 814.821184 127.747803 
L 815.085553 126.298193 
L 815.455669 122.677122 
L 815.931532 115.613852 
L 816.671765 100.791876 
L 818.257976 68.198219 
L 818.786714 61.661378 
L 819.15683 59.250221 
L 819.421198 58.716152 
L 819.526946 58.784844 
L 819.685567 59.189394 
L 819.949936 60.653771 
L 820.320052 64.282237 
L 820.848789 72.246716 
L 821.641895 88.293192 
L 822.963738 114.94697 
L 823.492475 121.73861 
L 823.862592 124.346981 
L 824.12696 125.011006 
L 824.232708 124.988958 
L 824.391329 124.647152 
L 824.655697 123.265891 
L 825.025814 119.710086 
L 825.501677 112.701307 
L 826.241909 98.032455 
L 827.616626 70.439786 
L 828.145363 63.971847 
L 828.51548 61.770369 
L 828.726974 61.473227 
L 828.885596 61.725555 
L 829.097091 62.698173 
L 829.202838 63.454718 
L 829.202838 63.454718 
" clip-path="url(#pbfef45854e)" style="fill: none; stroke: #55a5af; stroke-width: 2; stroke-linecap: square"/>
   </g>
   <g id="text_31">
    <!-- Original signal $-$ Mean value -->
    <g transform="translate(651.412848 151.925025) scale(0.12 -0.12)">
     <defs>
      <path id="DejaVuSans-2212" d="M 678 2272 
L 4684 2272 
L 4684 1741 
L 678 1741 
L 678 2272 
z
" transform="scale(0.015625)"/>
     </defs>
     <use xlink:href="#DejaVuSans-4f" transform="translate(0 0.015625)"/>
     <use xlink:href="#DejaVuSans-72" transform="translate(78.710938 0.015625)"/>
     <use xlink:href="#DejaVuSans-69" transform="translate(119.824219 0.015625)"/>
     <use xlink:href="#DejaVuSans-67" transform="translate(147.607422 0.015625)"/>
     <use xlink:href="#DejaVuSans-69" transform="translate(211.083984 0.015625)"/>
     <use xlink:href="#DejaVuSans-6e" transform="translate(238.867188 0.015625)"/>
     <use xlink:href="#DejaVuSans-61" transform="translate(302.246094 0.015625)"/>
     <use xlink:href="#DejaVuSans-6c" transform="translate(363.525391 0.015625)"/>
     <use xlink:href="#DejaVuSans-20" transform="translate(391.308594 0.015625)"/>
     <use xlink:href="#DejaVuSans-73" transform="translate(423.095703 0.015625)"/>
     <use xlink:href="#DejaVuSans-69" transform="translate(475.195312 0.015625)"/>
     <use xlink:href="#DejaVuSans-67" transform="translate(502.978516 0.015625)"/>
     <use xlink:href="#DejaVuSans-6e" transform="translate(566.455078 0.015625)"/>
     <use xlink:href="#DejaVuSans-61" transform="translate(629.833984 0.015625)"/>
     <use xlink:href="#DejaVuSans-6c" transform="translate(691.113281 0.015625)"/>
     <use xlink:href="#DejaVuSans-20" transform="translate(718.896484 0.015625)"/>
     <use xlink:href="#DejaVuSans-2212" transform="translate(750.683594 0.015625)"/>
     <use xlink:href="#DejaVuSans-20" transform="translate(834.472656 0.015625)"/>
     <use xlink:href="#DejaVuSans-4d" transform="translate(866.259766 0.015625)"/>
     <use xlink:href="#DejaVuSans-65" transform="translate(952.539062 0.015625)"/>
     <use xlink:href="#DejaVuSans-61" transform="translate(1014.0625 0.015625)"/>
     <use xlink:href="#DejaVuSans-6e" transform="translate(1075.341797 0.015625)"/>
     <use xlink:href="#DejaVuSans-20" transform="translate(1138.720703 0.015625)"/>
     <use xlink:href="#DejaVuSans-76" transform="translate(1170.507812 0.015625)"/>
     <use xlink:href="#DejaVuSans-61" transform="translate(1229.6875 0.015625)"/>
     <use xlink:href="#DejaVuSans-6c" transform="translate(1290.966797 0.015625)"/>
     <use xlink:href="#DejaVuSans-75" transform="translate(1318.75 0.015625)"/>
     <use xlink:href="#DejaVuSans-65" transform="translate(1382.128906 0.015625)"/>
    </g>
   </g>
   <g id="patch_12">
    <path d="M 604.533777 162.356325 
Q 723.479081 162.356325 841.306351 162.356325 
" style="fill: none; stroke: #000000; stroke-linecap: round"/>
    <path d="M 837.306351 160.356325 
L 841.306351 162.356325 
L 837.306351 164.356325 
" style="fill: none; stroke: #000000; stroke-linecap: round"/>
   </g>
   <g id="patch_13">
    <path d="M 607.188701 163.138333 
Q 607.188701 92.813563 607.188701 23.606826 
" style="fill: none; stroke: #000000; stroke-linecap: round"/>
    <path d="M 605.188701 27.606826 
L 607.188701 23.606826 
L 609.188701 27.606826 
" style="fill: none; stroke: #000000; stroke-linecap: round"/>
   </g>
   <g id="text_32">
    <!-- (c) -->
    <g transform="translate(579.278352 16.318125) scale(0.12 -0.12)">
     <defs>
      <path id="DejaVuSans-63" d="M 3122 3366 
L 3122 2828 
Q 2878 2963 2633 3030 
Q 2388 3097 2138 3097 
Q 1578 3097 1268 2742 
Q 959 2388 959 1747 
Q 959 1106 1268 751 
Q 1578 397 2138 397 
Q 2388 397 2633 464 
Q 2878 531 3122 666 
L 3122 134 
Q 2881 22 2623 -34 
Q 2366 -91 2075 -91 
Q 1284 -91 818 406 
Q 353 903 353 1747 
Q 353 2603 823 3093 
Q 1294 3584 2113 3584 
Q 2378 3584 2631 3529 
Q 2884 3475 3122 3366 
z
" transform="scale(0.015625)"/>
     </defs>
     <use xlink:href="#DejaVuSans-28"/>
     <use xlink:href="#DejaVuSans-63" transform="translate(39.013672 0)"/>
     <use xlink:href="#DejaVuSans-29" transform="translate(93.994141 0)"/>
    </g>
   </g>
   <g id="patch_14">
    <path d="M 650.305764 139.823639 
Q 642.997954 128.799471 636.616747 119.173125 
" clip-path="url(#pbfef45854e)" style="fill: none; stroke: #55a5af; stroke-width: 1.5; stroke-linecap: round"/>
    <path d="M 637.594282 127.163396 
L 636.616747 119.173125 
L 643.595484 123.185259 
" clip-path="url(#pbfef45854e)" style="fill: none; stroke: #55a5af; stroke-width: 1.5; stroke-linecap: round"/>
   </g>
   <g id="legend_2">
    <g id="line2d_29">
     <path d="M 620.783761 40.38129 
L 632.783761 40.38129 
L 644.783761 40.38129 
" style="fill: none; stroke: #55a5af; stroke-width: 2; stroke-linecap: square"/>
    </g>
    <g id="text_33">
     <!-- IMF 1 -->
     <g transform="translate(654.383761 44.58129) scale(0.12 -0.12)">
      <defs>
       <path id="DejaVuSans-49" d="M 628 4666 
L 1259 4666 
L 1259 0 
L 628 0 
L 628 4666 
z
" transform="scale(0.015625)"/>
       <path id="DejaVuSans-46" d="M 628 4666 
L 3309 4666 
L 3309 4134 
L 1259 4134 
L 1259 2759 
L 3109 2759 
L 3109 2228 
L 1259 2228 
L 1259 0 
L 628 0 
L 628 4666 
z
" transform="scale(0.015625)"/>
      </defs>
      <use xlink:href="#DejaVuSans-49"/>
      <use xlink:href="#DejaVuSans-4d" transform="translate(29.492188 0)"/>
      <use xlink:href="#DejaVuSans-46" transform="translate(115.771484 0)"/>
      <use xlink:href="#DejaVuSans-20" transform="translate(173.291016 0)"/>
      <use xlink:href="#DejaVuSans-31" transform="translate(205.078125 0)"/>
     </g>
    </g>
   </g>
  </g>
 </g>
 <defs>
  <clipPath id="pd4b48bf498">
   <rect x="35.110349" y="23.272325" width="232.586239" height="139.084"/>
  </clipPath>
  <clipPath id="pa8d91c622d">
   <rect x="321.149525" y="23.272325" width="232.586239" height="139.084"/>
  </clipPath>
  <clipPath id="pbfef45854e">
   <rect x="607.188701" y="23.272325" width="232.586239" height="139.084"/>
  </clipPath>
 </defs>
</svg>
