<svg width="860" height="75" viewBox="0 0 860 75" fill="none" xmlns="http://www.w3.org/2000/svg" xmlns:xlink="http://www.w3.org/1999/xlink">
  <style>
    g.elem rect { fill: #bbb; stroke: black; stroke-width: 1.5; }
    g.elem a:hover rect { fill: #ddd; }
    g.elem_active rect { fill: #fff; stroke: black; stroke-width: 1.5; }
    g.elem_active text { fill: #333; }
    line { stroke: black; stroke-width: 1.5; }
    text { font-family: Helvetica, arial, sans-serif; font-size: 85%; fill: #0366b6; font-weight: bold; };
    a text:hover { text-decoration: underline; }
  </style>

  <!-- Header -->
  <line x1="25" y1="5" x2="300" y2="5" style="stroke:black;stroke-dasharray:6;stroke-width:1;" />
  <line x1="25" y1="5" x2="25" y2="15" style="stroke:black;stroke-dasharray:6;stroke-width:1;" />
  <text x="430" y="10" text-anchor="middle" style="fill: #333">The Data Science Pipeline with mlpack</text>
  <line x1="570" y1="5" x2="845" y2="5" style="stroke:black;stroke-dasharray:6;stroke-width:1;" />
  <line x1="845" y1="5" x2="845" y2="15" style="stroke:black;stroke-dasharray:6;stroke-width:1;" />

  <!-- Data loading and I/O (active) -->
  <g class="elem">
    <a xlink:href="../user/load_save.html" target="_top">
      <rect x="25" y="20" rx="10" ry="10" width="120" height="40" />
      <text x="85" y="37" text-anchor="middle">Data loading</text>
      <text x="85" y="52" text-anchor="middle">and I/O</text>
    </a>
  </g>

  <line x1="145" y1="40" x2="164" y2="40" />
  <line x1="164" y1="40" x2="159" y2="35" />
  <line x1="164" y1="40" x2="159" y2="45" />

  <g class="elem">
    <a xlink:href="../user/preprocessing.html" target="_top">
      <rect x="165" y="20" rx="10" ry="10" width="120" height="40" />
      <text x="225" y="37" text-anchor="middle">Preprocessing /</text>
      <text x="225" y="52" text-anchor="middle">feature extraction</text>
    </a>
  </g>

  <line x1="285" y1="40" x2="304" y2="40" />
  <line x1="304" y1="40" x2="299" y2="35" />
  <line x1="304" y1="40" x2="299" y2="45" />

  <g class="elem">
    <a xlink:href="../user/transformations.html" target="_top">
      <rect x="305" y="20" rx="10" ry="10" width="120" height="40" />
      <text x="365" y="44" text-anchor="middle">Transformations</text>
    </a>
  </g>

  <line x1="425" y1="40" x2="444" y2="40" />
  <line x1="444" y1="40" x2="439" y2="35" />
  <line x1="444" y1="40" x2="439" y2="45" />

  <g class="elem">
    <a xlink:href="../user/modeling.html" target="_top">
      <rect x="445" y="20" rx="10" ry="10" width="120" height="40" />
      <text x="505" y="44" text-anchor="middle">Modeling</text>
    </a>
  </g>

  <line x1="565" y1="40" x2="584" y2="40" />
  <line x1="584" y1="40" x2="579" y2="35" />
  <line x1="584" y1="40" x2="579" y2="45" />

  <g class="elem">
    <a xlink:href="../user/evaluation.html" target="_top">
      <rect x="585" y="20" rx="10" ry="10" width="120" height="40" />
      <text x="645" y="44" text-anchor="middle">Evaluation</text>
    </a>
  </g>

  <line x1="705" y1="40" x2="724" y2="40" />
  <line x1="724" y1="40" x2="719" y2="35" />
  <line x1="724" y1="40" x2="719" y2="45" />

  <g class="elem_active">
    <rect x="725" y="20" rx="10" ry="10" width="120" height="40" />
    <text x="785" y="44" text-anchor="middle">Deployment</text>
  </g>
</svg>
